<svg fill="gray" enable-background="new -398 582.7 110.9 110.9" viewBox="-398 582.7 110.9 110.9" xmlns="http://www.w3.org/2000/svg"><path d="m-334.5 614.7v28.9c0 .6-.2 1.1-.6 1.5s-.9.6-1.5.6h-20.6c-.6 0-1.1-.2-1.5-.6s-.6-.9-.6-1.5v-4.1c0-.6.2-1.1.6-1.5s.9-.6 1.5-.6h14.4v-22.7c0-.6.2-1.1.6-1.5s.9-.6 1.5-.6h4.1c.6 0 1.1.2 1.5.6s.6.9.6 1.5zm26.8 22.7c0-6.4-1.6-12.2-4.7-17.6s-7.4-9.6-12.8-12.8c-5.4-3.1-11.2-4.7-17.6-4.7s-12.2 1.6-17.6 4.7-9.6 7.4-12.8 12.8c-3.1 5.4-4.7 11.2-4.7 17.6s1.6 12.2 4.7 17.6 7.4 9.6 12.8 12.8c5.4 3.1 11.2 4.7 17.6 4.7s12.2-1.6 17.6-4.7 9.6-7.4 12.8-12.8c3.1-5.4 4.7-11.3 4.7-17.6zm14.4 0c0 9-2.2 17.3-6.6 24.8-4.4 7.6-10.4 13.6-18 18s-15.9 6.6-24.8 6.6-17.3-2.2-24.8-6.6c-7.6-4.4-13.6-10.4-18-18s-6.6-15.9-6.6-24.8 2.2-17.3 6.6-24.8 10.4-13.6 18-18 15.9-6.6 24.8-6.6 17.3 2.2 24.8 6.6c7.6 4.4 13.6 10.4 18 18s6.6 15.8 6.6 24.8z"/></svg>