<?xml version="1.0" encoding="utf-8"?>
<!-- Generator: Adobe Illustrator 19.0.0, SVG Export Plug-In . SVG Version: 6.00 Build 0)  -->
<svg version="1.1" id="Livello_1" xmlns="http://www.w3.org/2000/svg" xmlns:xlink="http://www.w3.org/1999/xlink" x="0px" y="0px"
	 viewBox="-230 220.9 78.2 97.7" style="enable-background:new -230 220.9 78.2 97.7;" xml:space="preserve">
<g id="Livello_5">
</g>
<g id="fustella">
</g>
<g id="fustella_su_nero">
</g>
<g id="template">
</g>
<g id="template_copia">
</g>
<g id="template_su_nero">
</g>
<g id="Livello_12">
</g>
<g id="Livello_11">
</g>
<g id="Livello_10">
	<g id="XMLID_340_">
	</g>
	<g id="XMLID_316_">
	</g>
	<g id="XMLID_123_">
	</g>
</g>
<g id="Livello_9">
</g>
<g id="testo">
</g>
<g>
	<g>
		<path d="M-206.8,269.4c0-0.5,0-0.9,0.1-1.4c-6.4-1.9-11.2-6.1-11.2-11.1c0-1,0-2.6,0.1-2.8c1.5,3.6,7,6.5,13.4,7.6l3.2-5.2
			c0.7-1.1,1.6-2.1,2.6-3c1-0.8,2.1-1.5,3.3-2.1c1.5-0.7,3.1-1.1,4.8-1.4c-0.2-0.2-0.3-0.6-0.3-0.9c0-0.8,0.7-1.5,1.5-1.5
			c0.8,0,1.5,0.7,1.5,1.5c0,0.2-0.1,0.5-0.2,0.7c0.2,0,0.4,0,0.6,0c3.4,0,6.9,0.7,10.4,2.1c0-8.4-10.1-15.3-22.5-15.3
			c-12.4,0-22.5,6.9-22.5,15.4l0,6.7c0,6.8,6.6,12.6,15.6,14.6C-206.7,272-206.8,270.7-206.8,269.4z M-192.1,241.2
			c0.8,0,1.5,0.7,1.5,1.5c0,0.8-0.7,1.5-1.5,1.5c-0.8,0-1.5-0.7-1.5-1.5C-193.6,241.9-192.9,241.2-192.1,241.2z M-198,246.4
			c0.8,0,1.5,0.7,1.5,1.5c0,0.8-0.7,1.5-1.5,1.5c-0.8,0-1.5-0.7-1.5-1.5C-199.5,247.1-198.8,246.4-198,246.4z M-203.7,242.9
			c0.8,0,1.5,0.7,1.5,1.5c0,0.8-0.7,1.5-1.5,1.5c-0.8,0-1.5-0.7-1.5-1.5C-205.2,243.5-204.5,242.9-203.7,242.9z M-207.2,249.9
			c0.8,0,1.5,0.7,1.5,1.5c0,0.8-0.7,1.5-1.5,1.5c-0.8,0-1.5-0.7-1.5-1.5C-208.7,250.6-208,249.9-207.2,249.9z M-211.4,245.7
			c0.8,0,1.5,0.7,1.5,1.5c0,0.8-0.7,1.5-1.5,1.5c-0.8,0-1.5-0.7-1.5-1.5C-213,246.4-212.3,245.7-211.4,245.7z"/>
		<path d="M-172.3,256.6c-1.5-1-3.1-1.8-4.7-2.4c-3.5-1.5-7.1-2.2-10.4-2.2c-5.3,0-9.8,1.9-12.2,5.7l-2.7,4.3l-0.9,1.4
			c-1,1.6-1.5,3.3-1.6,5.1c-0.1,1.7,0.1,3.5,0.6,5.2c1.6,5.3,5.8,10.7,11.9,14.6c5,3.1,10.4,4.7,15.1,4.7c5.3,0,9.7-1.9,12.1-5.7
			c0-0.1,3.5-5.5,3.6-5.7C-156.9,274.4-161.7,263.2-172.3,256.6z M-172.4,272.9c0,0.8-0.7,1.5-1.5,1.5c-0.8,0-1.5-0.7-1.5-1.5
			s0.7-1.5,1.5-1.5C-173.1,271.4-172.4,272.1-172.4,272.9z M-174.4,261.8c0.8,0,1.5,0.7,1.5,1.5s-0.7,1.5-1.5,1.5
			c-0.8,0-1.5-0.7-1.5-1.5S-175.2,261.8-174.4,261.8z M-180.9,269.1c0,0.8-0.7,1.5-1.5,1.5c-0.6,0-1.1-0.3-1.4-0.8
			c-0.1-0.2-0.2-0.5-0.2-0.7c0-0.8,0.7-1.5,1.5-1.5c0.4,0,0.8,0.2,1,0.4C-181.1,268.3-180.9,268.7-180.9,269.1z M-178.8,262.8
			c0,0.8-0.7,1.5-1.5,1.5c-0.8,0-1.5-0.7-1.5-1.5s0.7-1.5,1.5-1.5C-179.5,261.3-178.8,262-178.8,262.8z M-186.1,257.4
			c0.6,0,1.2,0.4,1.4,1c0.1,0.2,0.1,0.4,0.1,0.6c0,0.8-0.7,1.5-1.5,1.5c-0.5,0-1-0.3-1.3-0.7c-0.2-0.2-0.3-0.5-0.3-0.9
			C-187.6,258-186.9,257.4-186.1,257.4z M-167.4,283.7c-3.5,5.7-13.8,5.6-22.1,0.4c-4.2-2.6-7.4-6.3-9.1-10c-0.8-1.7-1.2-3.4-1.3-5
			c-0.1-1.8,0.3-3.6,1.2-5c0.4-0.6,0.9-1.4,1.2-1.9c0.1-0.2,0.3-0.4,0.3-0.4c0,0.1,0,0.2-0.1,0.4c-0.2,2,0.5,4.3,1.9,6.6
			c0.9,1.5,2.1,3,3.4,4.5c1.7,1.8,3.8,3.6,6.1,5c7.1,4.5,16,6,19.9,3.1C-165.9,281.3-166.9,282.9-167.4,283.7z M-166.1,270.3
			c0,0.8-0.7,1.5-1.5,1.5c-0.8,0-1.5-0.7-1.5-1.5c0-0.8,0.7-1.5,1.5-1.5C-166.8,268.8-166.1,269.5-166.1,270.3z"/>
	</g>
</g>
</svg>
