<svg fill="white" enable-background="new 0 0 142.3 107.7" viewBox="0 0 142.3 107.7" xmlns="http://www.w3.org/2000/svg"><ellipse cx="102.8" cy="81.8" rx=".7" ry="1.1" transform="matrix(-.4712 -.882 .882 -.4712 79.0584 210.998)"/><path d="m110 77.9c-1.3-2.4-5.5-2.6-9.5-.4-4 2.1-6.2 5.8-4.9 8.2s5.5 2.6 9.5.4c4-2.1 6.2-5.8 4.9-8.2zm-6.3 5.6c-1.6.9-3.3.8-3.8-.2s.4-2.4 2-3.3 3.3-.8 3.8.2-.4 2.5-2 3.3z"/><path d="m97.9 77.8c.6-.3.5-1 .5-1v-3.1l5.3-2.7v.3 2.9c0 .1 0 .7.4 1 .2.2.5.2.8.1s2.3-.7 2.3-.7c1.1-.3 1.4-1.1 1.5-1.6v-5.4c0-.8-.3-1.1-.6-1.3-.9-.5-2.2.4-2.4.5l-3.8 2c1-2 1.3-3.6.8-4.6-.3-.6-.8-.9-1.1-1 0-.2-.1-.4-.2-.6-.4-.9-1.2-1.2-1.6-1.3-.2-.5-.6-.7-.8-.8-.5-.1-1 0-1.4.2-.2-.2-.3-.4-.5-.5-.9-.5-2.3.8-7.3 6.4-1.6 1.8-3.5 3.9-5.4 5.8-.5.6-1.1 1.1-1.6 1.7-4.3 4.2-7.4 6.4-9.3 6.4-3 0-5.3-.9-6.6-2.5-1-1.2-1.4-2.8-1.1-4.5.3-1.6.7-2.3 2.9-4.7 2.9-3.2.8-9.7-1.9-16.8-.2-.5-.4-.9-.5-1.4-1.7-4.2-3.3-7.5-3.3-7.5l-.2-.4-19.9 7 8.8 21.3-12.9 15.7h50.8l3.1-7.1-7.4-6.8c1.8-1.8 3.5-3.8 5-5.5 2.5-2.8 5.3-5.9 6.1-6.2.1.1.2.2.4.5 1.4 2.5 2.1 8.4 1.4 8.9-.3-.1-.7-1.3-1-1.9-.5-1.4-1-2.6-1.9-2.6-.8 0-1.2.9-1.6 1.8-1.4 3.6-1.6 3.6-2.6 3.6-.3 0-.5.2-.5.5s.2.5.5.5c1.7 0 2.1-.3 3.6-4.2.4-1 .6-1.2.6-1.2.3.1.7 1.3 1 1.9.3.8.6 1.6 1 2.1l-2.2 1.1c-.1 0-1.9.9-1.9 3.7v2.2c0 .1 0 .8.5 1.1.2.1.4.2.6.2.3 0 .6-.1 1-.3zm-46.1 7.9 2.8-12.9h.5l-1.1 5.7.1-.1-1.6 7.2h-.7zm4.8-12.8-.5 3.4-.9.4.8-3.8zm5.1 4.4-.8-.6.7-3.5h.8zm-6.8.7 1-.5-1.6 8.2h-1.1zm1.8-.9 1.5-.8-1.6 9.4h-1.6zm2.3-.7 1.1.9-1.6 8.4h-1.1zm1.7 1.4.9.7-1.3 7.1h-1.1zm1.5 1.3.1.1 1-5.9 1.3.1-2.1 12.4h-1.5zm5.7-10.9c-1.8 1.9-2.5 2.9-2.9 4.2l-3.2-.2.4-2.1-2.9 2-2.2-2.3-.3 2.1-1-.1c-.1 0-.1-.1-.2-.1s-.1 0-.2 0l-1.6-.1-2-7.1v-.1s0-.1-.1-.1c0 0 0 0-.1-.1 0 0-.1 0-.1-.1-.8-.3-1.3-.8-1.5-1.4-.3-.7.4-1.7.4-1.7l.2-.3-.2-.3c-.6-1-.9-4 .3-6 .7-1.2 1.8-1.7 3.2-1.7 4 .1 4.3.1 5.4-1 .4-.4 1-.9 2.1-1.7.8-.6 1.5-.8 2.1-.6.8.2 1.3 1 1.6 1.5v.1c.2.4.3.8.5 1.3 2.1 5.2 5 12.9 2.3 15.9zm23 13-7.2-6.7c.3-.3.6-.6.9-1l6.9 6.3zm9.5-18.2c.3.6.5 1.8-.9 4.5 0-.3-.1-.5-.1-.8.5-1.8.6-3.2.6-4.1.1 0 .3.2.4.4zm-1.8-1.5c.1 0 .2.2.3.4.1.3.2 1.1 0 2.3-.3-1-.6-1.9-.9-2.6.2-.1.4-.2.6-.1zm1 7.9c1.2-2 1.9-3.7 2-5l.2.2c.3.5.4 1.9-1.5 5l-.6.3c-.2-.1-.1-.3-.1-.5z"/><path d="m64.1 58c.6 0 1.1-.5 1.1-1.1s-.5-1.1-1.1-1.1-1.1.4-1.1 1.1c0 .6.5 1.1 1.1 1.1z"/><path d="m55.3 58.3c-.6 0-1.1.5-1.1 1.1s.5 1.1 1.1 1.1 1.1-.5 1.1-1.1-.5-1.1-1.1-1.1z"/><path d="m58.7 66.1c1.6 1.1 3 1.7 4.2 1.7.5 0 1-.1 1.4-.3 2-1.1 1.9-4.5 1.9-4.7v-.7l-8.2 3.5zm6.5-2.5c-.1 1-.4 2.5-1.4 3-.8.5-2.1.2-3.8-.8z"/><path d="m60.6 59.3c.5 0 1 0 1.2.3.1.2.2.4.2.8 0 .2.1.4.3.4.2 0 .4-.1.4-.3.1-.6-.1-1.1-.4-1.4-.4-.5-1.2-.5-1.8-.5-.1 0-.2 0-.2-.1-.2-.2-.1-.8-.1-1.1 0-.2-.1-.4-.3-.4s-.4.1-.4.3c0 .1-.2 1.2.2 1.7.3.2.6.3.9.3z"/><path d="m73.6 67.4v2.6h2.4 1 1.2v-2.6l1-3.2c.4-1.2-.2-2.3-.2-2.3l-2-5h-3l-2 5.2c0 .2-.2 1 0 1.6.2.4 1.4 3.2 1.6 3.7zm2.4 1.6h-1.3v-1.2h1.3zm-3.1-6.6 1.6-4.5h1.3l-1.5 4.3c0 .2-.2 1 0 1.6.1.3.9 2.1 1.4 3.1h-1.2c-.5-1.2-1.4-3.2-1.5-3.5s-.1-.8-.1-1z"/><circle cx="76.3" cy="44.2" r=".8"/><circle cx="76.3" cy="46.9" r=".8"/><circle cx="76.3" cy="49.6" r=".8"/><circle cx="76.3" cy="52.3" r=".8"/><circle cx="76.3" cy="55" r=".8"/><path d="m19.7 39.5c-2.3-3.6-1.5-8.1 2.3-10.6 1.9-1.2 3.4-1.5 4.9-1.4.4 0 .9.3 1.2.7.5.7.2 1.7-.5 2.2-.4.2-.7.3-1 .3-1.1-.1-2.1.1-3.1.7-2.1 1.3-2.5 4-1.1 6.2 1.4 2.1 4 3 6.1 1.6 1.2-.7 1.7-1.6 2.1-2.7.1-.3.3-.6.6-.8.7-.4 1.6-.2 2.1.4.3.4.3.9.2 1.3-.5 1.7-1.4 3.1-3.4 4.4-3.6 2.4-8.1 1.3-10.4-2.3z"/><path d="m35.1 30.1c-1.5-4 .5-8.3 4.7-9.9 4.3-1.6 8.5.5 9.9 4.4 1.4 3.9-.5 8.3-4.7 9.8-4.2 1.7-8.4-.3-9.9-4.3zm11.5-4.2c-.9-2.4-3.3-3.7-5.8-2.8-2.4.9-3.4 3.5-2.6 5.8.9 2.4 3.3 3.7 5.8 2.8s3.5-3.4 2.6-5.8z"/><path d="m53.8 18c-.1-.2-.2-.4-.2-.6-.1-.9.6-1.6 1.5-1.7.8-.1 1.4.4 1.7 1l3.7 8.7 2.1-9.2c.2-.8.7-1.3 1.5-1.4h.3c.8-.1 1.4.4 1.7 1.1l3.7 8.6 2.1-9.2c.2-.6.6-1.2 1.4-1.3.9-.1 1.6.5 1.7 1.4 0 .2 0 .4-.1.6l-2.9 12c-.2.8-.8 1.4-1.6 1.5h-.3c-.8.1-1.4-.4-1.8-1.2l-3.6-8.1-2.1 8.6c-.2.9-.8 1.4-1.5 1.5h-.3c-.8.1-1.4-.4-1.8-1.2z"/><path d="m78.4 27.2 6.8-10.7c.5-.7 1.2-1.1 2.1-1h.2c.9.1 1.4.7 1.7 1.5l3.4 12.2c.1.2.1.5.1.7-.1.9-.9 1.4-1.7 1.3-.7-.1-1.2-.6-1.4-1.3l-.6-2.4-6.4-1-1.6 2.2c-.4.6-1 .9-1.6.8-.8-.1-1.4-.9-1.3-1.7 0-.2.1-.4.3-.6zm9.6-2.7-1.3-5.1-2.7 4.5z"/><path d="m100.6 20.2c.3-.8 1.2-1.3 2.1-.9l4.8 1.8c1.8.7 2.9 1.7 3.5 2.9.5 1.1.5 2.3 0 3.6-.8 2.2-2.4 3.1-4.3 3.2l1.2 3.3c.2.5.2.9.1 1.3-.3.8-1.2 1.1-2 .9-.7-.3-1-.8-1.2-1.3l-1.6-4.8-2.4-.9-1.1 3c-.3.8-1.2 1.3-2.1 1-.8-.3-1.3-1.2-1-2.1zm4.2 7.5c1.5.6 2.6.1 3-1.1.5-1.3-.2-2.3-1.6-2.9l-3-1.1-1.5 4z"/><path d="m118.4 27.6c.5-.8 1.5-1 2.2-.5l3.5 2.2c3.9 2.5 4.9 6.9 2.6 10.4-2.2 3.5-6.7 4.5-10.5 2l-3.5-2.2c-.8-.5-1-1.5-.5-2.2zm-.6 11.7c2.2 1.4 4.7.9 6.1-1.3 1.4-2.2.9-4.7-1.3-6.1l-2.1-1.3-4.8 7.5z"/></svg>