<svg enable-background="new 0 0 331.483 109.495" viewBox="0 0 331.483 109.495" xmlns="http://www.w3.org/2000/svg"><path d="m128.378 30.076c-.401-.654-.904-1.23-1.508-1.727-.604-.498-1.288-.887-2.053-1.169-.765-.28-1.568-.425-2.407-.431-1.536-.013-2.841.274-3.917.859s-1.952 1.373-2.625 2.366c-.674.995-1.17 2.127-1.484 3.399s-.477 2.587-.488 3.948c-.011 1.303.131 2.571.425 3.804.294 1.234.771 2.346 1.429 3.336.657.99 1.52 1.785 2.586 2.388s2.366.91 3.902.923c2.085.017 3.718-.606 4.902-1.872 1.182-1.263 1.913-2.938 2.19-5.019l6.601.054c-.185 1.937-.652 3.687-1.388 5.243-.737 1.558-1.703 2.883-2.899 3.973-1.197 1.091-2.593 1.92-4.19 2.486-1.597.565-3.353.841-5.263.825-2.375-.019-4.507-.449-6.397-1.289-1.89-.841-3.48-1.99-4.772-3.448-1.291-1.458-2.275-3.168-2.954-5.129-.68-1.96-1.01-4.07-.991-6.329.019-2.315.383-4.463 1.095-6.441.711-1.977 1.723-3.701 3.038-5.166 1.316-1.467 2.925-2.611 4.828-3.436 1.903-.824 4.042-1.227 6.417-1.208 1.709.014 3.321.273 4.837.778s2.871 1.232 4.065 2.182c1.194.952 2.178 2.125 2.948 3.522.77 1.396 1.252 2.992 1.435 4.789l-6.599-.054c-.109-.782-.363-1.502-.763-2.157z"/><path d="m142.777 30.847c.709-1.977 1.72-3.701 3.036-5.166 1.316-1.467 2.923-2.611 4.828-3.436s4.043-1.227 6.419-1.208c2.404.02 4.542.458 6.416 1.313s3.458 2.025 4.751 3.514c1.289 1.486 2.275 3.227 2.955 5.215.677 1.989 1.006 4.142.987 6.458-.018 2.259-.382 4.363-1.091 6.312-.712 1.949-1.726 3.643-3.039 5.08-1.316 1.437-2.92 2.56-4.807 3.37s-4.033 1.204-6.436 1.185c-2.375-.019-4.507-.449-6.398-1.289-1.891-.841-3.48-1.99-4.772-3.448-1.293-1.458-2.275-3.168-2.952-5.129-.684-1.96-1.013-4.07-.995-6.329.018-2.317.382-4.465 1.098-6.442zm6.144 10.299c.294 1.234.773 2.346 1.429 3.336.657.99 1.52 1.785 2.589 2.388 1.063.603 2.365.91 3.902.923 1.534.013 2.837-.274 3.917-.859 1.072-.585 1.948-1.366 2.621-2.345.676-.979 1.169-2.083 1.483-3.313.314-1.228.48-2.494.49-3.796.011-1.361-.134-2.679-.427-3.956-.294-1.277-.769-2.417-1.428-3.423-.656-1.004-1.519-1.806-2.582-2.409-1.07-.603-2.368-.91-3.902-.923-1.538-.013-2.844.274-3.917.859-1.079.585-1.955 1.373-2.628 2.366-.673.995-1.17 2.127-1.484 3.399s-.474 2.587-.485 3.948c-.01 1.304.128 2.573.422 3.805z"/><path d="m201.506 54.808-5.081-21.152-.088-.001-5.343 21.067-6.903-.056-7.958-31.079 6.822.056 4.734 21.149.085.001 5.559-21.065 6.384.052 5.128 21.412.085.001 5.257-21.328 6.688.055-8.591 30.944z"/><path d="m234.452 21.713 11.345 31.107-7.08-.058-2.287-6.926-11.601-.095-2.488 6.887-6.861-.056 11.978-30.916zm.238 19.027-3.817-11.412-.088-.001-4.133 11.347z"/><path d="m264.723 21.251c1.392-.052 2.651.125 3.78.532 1.13.407 2.11.986 2.934 1.736.828.752 1.469 1.634 1.925 2.644.459 1.012.709 2.112.753 3.297.068 1.823-.254 3.416-.97 4.775-.717 1.36-1.929 2.419-3.641 3.179l.003.087c.849.202 1.555.529 2.124.987.565.456 1.035 1.003 1.406 1.642.374.639.652 1.344.844 2.121.185.775.327 1.551.413 2.332.047.49.097 1.068.15 1.733s.132 1.343.232 2.034c.097.691.234 1.346.42 1.962.179.616.439 1.135.773 1.557l-6.81.256c-.418-.969-.692-2.132-.831-3.49-.136-1.357-.315-2.654-.535-3.89-.294-1.613-.829-2.779-1.61-3.505-.781-.724-2.024-1.054-3.73-.99l-6.817.256.455 12.111-6.81.256-1.163-30.991zm-1.904 14.111c1.561-.059 2.721-.451 3.479-1.174.751-.723 1.101-1.867 1.042-3.43-.056-1.505-.49-2.582-1.292-3.232-.81-.651-1.995-.947-3.557-.889l-7.467.28.327 8.725z"/><path d="m291.938 21.036c1.981-.28 3.867-.224 5.66.165 1.794.391 3.404 1.13 4.828 2.214 1.428 1.087 2.627 2.525 3.594 4.319.97 1.793 1.638 3.965 1.998 6.517.316 2.237.32 4.342.013 6.315s-.945 3.73-1.912 5.271c-.968 1.54-2.264 2.827-3.886 3.859-1.621 1.034-3.61 1.716-5.962 2.048l-13.245 1.869-4.333-30.709zm3.06 25.098c.977-.138 1.899-.429 2.772-.873s1.618-1.085 2.229-1.916c.614-.833 1.054-1.868 1.318-3.104.261-1.235.276-2.699.037-4.391-.219-1.549-.566-2.926-1.043-4.13-.477-1.205-1.121-2.203-1.936-2.995s-1.821-1.344-3.019-1.659c-1.201-.313-2.631-.352-4.293-.117l-4.82.68 2.731 19.354z"/><path d="m119.709 62.094c1.388.068 2.626.353 3.719.856 1.092.503 2.017 1.164 2.773 1.983.758.821 1.321 1.754 1.691 2.8.368 1.048.524 2.165.467 3.349-.089 1.822-.549 3.381-1.38 4.673-.833 1.294-2.132 2.244-3.901 2.853l-.004.087c.827.274 1.504.661 2.029 1.166.526.503.948 1.089 1.263 1.757.316.668.534 1.396.654 2.185.121.788.192 1.574.212 2.359.004.492.004 1.073.002 1.74-.004.667.014 1.349.052 2.046s.121 1.361.25 1.991c.129.629.343 1.169.639 1.618l-6.811-.332c-.33-1.002-.504-2.183-.524-3.549-.02-1.364-.087-2.671-.2-3.922-.152-1.632-.587-2.84-1.3-3.631-.717-.789-1.927-1.225-3.633-1.308l-6.812-.332-.59 12.105-6.811-.332 1.511-30.976zm-3.115 13.895c1.562.076 2.751-.214 3.566-.87s1.259-1.765 1.335-3.327c.073-1.504-.264-2.614-1.011-3.332s-1.903-1.116-3.465-1.192l-7.462-.364-.425 8.721z"/><path d="m157.391 61.648.132 5.732-16.373.378.153 6.644 15.023-.347.122 5.297-15.023.347.175 7.6 16.719-.386.132 5.732-23.536.543-.715-31.005z"/><path d="m184.913 68.602c-.423-.638-.949-1.195-1.571-1.667-.623-.474-1.32-.837-2.098-1.089-.771-.251-1.581-.364-2.422-.338-1.533.047-2.825.383-3.881 1.009-1.049.626-1.894 1.447-2.528 2.466-.637 1.02-1.087 2.171-1.352 3.454s-.381 2.604-.339 3.964c.04 1.302.233 2.564.575 3.784.341 1.222.859 2.315 1.557 3.279.694.964 1.587 1.725 2.672 2.287 1.092.561 2.401.818 3.935.772 2.085-.063 3.694-.749 4.828-2.06 1.131-1.307 1.801-3.009 1.995-5.1l6.6-.2c-.114 1.943-.513 3.709-1.187 5.293-.677 1.585-1.59 2.946-2.744 4.081-1.154 1.137-2.517 2.018-4.089 2.646-1.576.626-3.32.969-5.231 1.027-2.374.072-4.521-.275-6.44-1.042-1.919-.768-3.554-1.855-4.902-3.262-1.344-1.407-2.396-3.078-3.151-5.011-.752-1.933-1.162-4.028-1.231-6.286-.07-2.314.211-4.475.843-6.478.636-2.003 1.583-3.765 2.839-5.279 1.259-1.516 2.824-2.722 4.693-3.619 1.868-.897 3.99-1.382 6.364-1.454 1.71-.052 3.329.145 4.863.592s2.92 1.121 4.15 2.024c1.23.905 2.255 2.039 3.081 3.406.819 1.365 1.362 2.942 1.618 4.73l-6.597.2c-.145-.78-.424-1.49-.85-2.129z"/><path d="m196.862 71.555c.632-2.003 1.576-3.765 2.835-5.279 1.259-1.516 2.821-2.722 4.693-3.619s3.993-1.382 6.367-1.454c2.403-.073 4.556.283 6.462 1.065 1.905.782 3.534 1.891 4.882 3.328 1.345 1.436 2.397 3.137 3.154 5.098.753 1.961 1.164 4.101 1.234 6.415.069 2.258-.214 4.374-.847 6.349-.637 1.975-1.585 3.707-2.841 5.193-1.26 1.486-2.819 2.671-4.673 3.553-1.855.882-3.983 1.359-6.386 1.432-2.374.072-4.521-.275-6.443-1.042s-3.554-1.855-4.902-3.262-2.396-3.078-3.148-5.011c-.759-1.933-1.169-4.028-1.238-6.286-.069-2.316.212-4.477.851-6.48zm6.537 10.055c.341 1.222.862 2.315 1.557 3.279.694.964 1.587 1.725 2.679 2.286 1.085.561 2.398.818 3.935.772 1.533-.047 2.825-.383 3.881-1.009 1.049-.626 1.894-1.44 2.529-2.444.638-1.004 1.088-2.127 1.355-3.367.267-1.239.384-2.51.344-3.812-.041-1.36-.237-2.672-.579-3.936-.343-1.265-.861-2.386-1.559-3.365-.695-.978-1.588-1.747-2.673-2.308-1.092-.561-2.401-.818-3.935-.772-1.537.047-2.832.383-3.881 1.009-1.056.626-1.901 1.448-2.535 2.466-.634 1.02-1.087 2.171-1.352 3.454s-.374 2.604-.332 3.964c.038 1.301.225 2.563.566 3.783z"/><path d="m247.69 61.729c1.389-.015 2.643.197 3.764.634 1.118.437 2.083 1.042 2.882 1.815.807.775 1.425 1.673 1.856 2.695.431 1.024.652 2.13.664 3.316.019 1.824-.349 3.408-1.099 4.747-.757 1.341-1.997 2.367-3.729 3.079l.001.087c.844.224 1.54.571 2.097 1.044.556.471 1.011 1.03 1.365 1.679.357.648.615 1.362.783 2.143.167.779.285 1.559.35 2.342.033.491.068 1.07.107 1.736.035.666.095 1.346.173 2.04s.202 1.352.367 1.972c.166.62.412 1.146.734 1.578l-6.818.072c-.389-.98-.631-2.15-.733-3.511-.103-1.36-.244-2.661-.433-3.903-.247-1.62-.751-2.801-1.511-3.547-.761-.745-1.995-1.108-3.706-1.09l-6.818.072.127 12.119-6.818.072-.326-31.011zm-2.288 14.054c1.566-.016 2.736-.377 3.51-1.08s1.154-1.836 1.138-3.4c-.016-1.506-.42-2.594-1.208-3.266s-1.965-1.001-3.531-.984l-7.469.079.092 8.731z"/><path d="m274.71 61.196c2-.032 3.865.257 5.596.866 1.731.611 3.238 1.543 4.516 2.796 1.282 1.256 2.293 2.831 3.03 4.732.741 1.899 1.133 4.138 1.174 6.714.036 2.258-.221 4.348-.77 6.268s-1.4 3.584-2.551 4.993c-1.151 1.408-2.597 2.525-4.334 3.348-1.737.825-3.795 1.255-6.17 1.293l-13.374.212-.491-31.009zm-.076 25.284c.986-.016 1.938-.19 2.859-.523s1.74-.876 2.449-1.624c.713-.75 1.277-1.722 1.693-2.917.412-1.193.609-2.643.582-4.352-.025-1.564-.199-2.974-.523-4.227-.324-1.255-.839-2.325-1.55-3.212-.71-.887-1.64-1.56-2.79-2.02-1.153-.459-2.567-.675-4.246-.649l-4.867.077.31 19.543z"/><path d="m300.102 85.474c.396.711.912 1.283 1.551 1.712.635.43 1.373.74 2.221.932s1.716.275 2.614.248c.608-.018 1.26-.09 1.949-.211.693-.124 1.337-.338 1.936-.646s1.092-.721 1.483-1.24.573-1.169.549-1.951c-.025-.839-.311-1.511-.864-2.016s-1.266-.916-2.145-1.238c-.88-.322-1.871-.596-2.981-.822-1.107-.228-2.228-.482-3.369-.768-1.168-.253-2.306-.574-3.417-.961-1.115-.385-2.114-.898-3.003-1.537-.889-.64-1.614-1.45-2.182-2.434-.567-.982-.869-2.182-.912-3.601-.048-1.592.249-2.983.895-4.177.643-1.192 1.504-2.196 2.582-3.012 1.072-.814 2.301-1.43 3.678-1.85 1.381-.417 2.76-.648 4.152-.69 1.618-.049 3.178.084 4.68.401s2.848.863 4.028 1.637c1.18.776 2.13 1.783 2.854 3.022.717 1.237 1.102 2.755 1.157 4.548l-6.6.2c-.085-.924-.306-1.685-.656-2.282-.351-.598-.807-1.063-1.365-1.393-.562-.331-1.198-.558-1.913-.681s-1.491-.172-2.328-.147c-.551.017-1.101.092-1.645.225-.548.132-1.04.35-1.48.653s-.796.675-1.073 1.118-.408.997-.388 1.663c.018.608.15 1.097.395 1.465.241.371.711.703 1.399 1.001.688.299 1.638.589 2.849.87 1.211.282 2.796.64 4.75 1.072.583.099 1.391.283 2.429.556 1.034.273 2.073.727 3.104 1.363 1.034.635 1.938 1.499 2.71 2.59.769 1.092 1.183 2.507 1.236 4.243.043 1.419-.193 2.743-.703 3.975-.514 1.232-1.302 2.306-2.357 3.223-1.061.916-2.387 1.644-3.979 2.184-1.589.542-3.44.844-5.553.908-1.71.052-3.374-.108-4.994-.478-1.617-.37-3.057-.986-4.314-1.846s-2.267-1.974-3.033-3.342c-.766-1.367-1.163-3.006-1.193-4.918l6.6-.2c.032 1.042.246 1.919.646 2.632z"/><path d="m63.239 32.828c-7.945 0-14.409 6.464-14.409 14.409s6.464 14.409 14.409 14.409 14.409-6.464 14.409-14.409-6.464-14.409-14.409-14.409z"/><path d="m17.162 20.492v72.948h72.948v-72.948zm46.077 47.154c-11.253 0-20.409-9.156-20.409-20.409s9.156-20.409 20.409-20.409c11.254 0 20.409 9.156 20.409 20.409s-9.155 20.409-20.409 20.409z"/></svg>