<?xml version="1.0" encoding="utf-8"?>
<!-- Generator: Adobe Illustrator 19.0.0, SVG Export Plug-In . SVG Version: 6.00 Build 0)  -->
<svg version="1.1" xmlns="http://www.w3.org/2000/svg" xmlns:xlink="http://www.w3.org/1999/xlink" x="0px" y="0px"
	 viewBox="0 0 78.178 97.667" enable-background="new 0 0 78.178 97.667" xml:space="preserve">
<g id="Livello_5">
</g>
<g id="fustella">
</g>
<g id="fustella_su_nero">
</g>
<g id="template">
</g>
<g id="template_copia">
</g>
<g id="template_su_nero">
</g>
<g id="Livello_12">
</g>
<g id="Livello_11">
</g>
<g id="Livello_10">
	<g id="XMLID_340_">
	</g>
	<g id="XMLID_316_">
	</g>
	<g id="XMLID_123_">
	</g>
</g>
<g id="Livello_9">
</g>
<g id="testo">
</g>
<g id="Livello_4">
	<g id="XMLID_7_">
	</g>
	<g id="XMLID_26_">
		<g id="XMLID_28_">
			<path id="XMLID_10_" d="M51.951,61.062c-0.432,0-0.859-0.185-1.156-0.543c-1.836-2.216-6.249-3.705-10.979-3.705
				c-4.731,0-9.145,1.489-10.98,3.705c-0.529,0.638-1.473,0.727-2.112,0.198c-0.638-0.529-0.727-1.475-0.198-2.112
				c2.449-2.955,7.542-4.791,13.291-4.791c5.748,0,10.841,1.836,13.29,4.791c0.528,0.638,0.439,1.583-0.198,2.112
				C52.628,60.949,52.288,61.062,51.951,61.062z"/>
		</g>
		<g id="XMLID_23_">
			<path id="XMLID_9_" d="M17.795,52.3c-0.529,0-1.043-0.281-1.315-0.778c-0.399-0.726-0.134-1.638,0.593-2.036
				c6.071-3.335,14.148-5.172,22.743-5.172c8.594,0,16.67,1.836,22.74,5.171c0.727,0.398,0.992,1.311,0.593,2.036
				c-0.398,0.726-1.312,0.991-2.036,0.593c-5.636-3.095-13.199-4.8-21.297-4.8c-8.099,0-15.662,1.705-21.3,4.801
				C18.287,52.241,18.039,52.3,17.795,52.3z"/>
		</g>
		<g id="XMLID_19_">
			<path id="XMLID_6_" d="M39.815,18.011c-5.634,0-10.853-1.876-13.296-4.779c-0.533-0.634-0.452-1.58,0.182-2.113
				c0.634-0.535,1.58-0.451,2.113,0.182c1.868,2.22,6.289,3.711,11.001,3.711c4.729,0,9.141-1.488,10.979-3.703
				c0.529-0.637,1.475-0.727,2.112-0.196c0.638,0.529,0.726,1.475,0.196,2.112C50.652,16.177,45.56,18.011,39.815,18.011z"/>
		</g>
		<g id="XMLID_25_">
			<path id="XMLID_4_" d="M39.815,27.511c-8.597,0-16.675-1.837-22.746-5.173c-0.726-0.398-0.991-1.311-0.592-2.037
				c0.397-0.725,1.31-0.991,2.037-0.592c5.636,3.097,13.2,4.802,21.301,4.802c8.003,0,15.504-1.671,21.122-4.705
				c0.727-0.393,1.639-0.122,2.033,0.607c0.394,0.729,0.121,1.639-0.607,2.033C56.314,25.712,48.307,27.511,39.815,27.511z"/>
		</g>
		<g id="XMLID_29_">
			<path id="XMLID_3_" d="M66.394,37.412H13.236c-0.828,0-1.5-0.672-1.5-1.5s0.672-1.5,1.5-1.5h53.158c0.828,0,1.5,0.672,1.5,1.5
				S67.222,37.412,66.394,37.412z"/>
		</g>
		<g id="XMLID_24_">
			<g id="XMLID_5_">
				
					<path id="XMLID_35_" fill="none" stroke="#000000" stroke-width="3" stroke-linecap="round" stroke-linejoin="round" stroke-miterlimit="10" d="
					M39.815,62.492c-14.679,0-26.579-11.9-26.579-26.579s11.9-26.579,26.579-26.579"/>
				
					<path id="XMLID_34_" fill="none" stroke="#000000" stroke-width="3" stroke-linecap="round" stroke-linejoin="round" stroke-miterlimit="10" d="
					M39.815,62.492c-10.485,0-18.985-11.9-18.985-26.579s8.5-26.579,18.985-26.579"/>
				
					<path id="XMLID_33_" fill="none" stroke="#000000" stroke-width="3" stroke-linecap="round" stroke-linejoin="round" stroke-miterlimit="10" d="
					M39.815,62.492c-6.291,0-11.391-11.9-11.391-26.579s5.1-26.579,11.391-26.579"/>
				
					<path id="XMLID_32_" fill="none" stroke="#000000" stroke-width="3" stroke-linecap="round" stroke-linejoin="round" stroke-miterlimit="10" d="
					M39.815,62.492c-2.097,0-3.797-11.9-3.797-26.579s1.7-26.579,3.797-26.579"/>
				
					<path id="XMLID_31_" fill="none" stroke="#000000" stroke-width="3" stroke-linecap="round" stroke-linejoin="round" stroke-miterlimit="10" d="
					M39.815,62.492c2.097,0,3.797-11.9,3.797-26.579s-1.7-26.579-3.797-26.579"/>
				
					<path id="XMLID_30_" fill="none" stroke="#000000" stroke-width="3" stroke-linecap="round" stroke-linejoin="round" stroke-miterlimit="10" d="
					M39.815,62.492c6.291,0,11.391-11.9,11.391-26.579s-5.1-26.579-11.391-26.579"/>
				
					<path id="XMLID_12_" fill="none" stroke="#000000" stroke-width="3" stroke-linecap="round" stroke-linejoin="round" stroke-miterlimit="10" d="
					M39.815,62.492c10.485,0,18.985-11.9,18.985-26.579S50.3,9.333,39.815,9.333"/>
				
					<path id="XMLID_2_" fill="none" stroke="#000000" stroke-width="3" stroke-linecap="round" stroke-linejoin="round" stroke-miterlimit="10" d="
					M39.815,62.492c14.679,0,26.579-11.9,26.579-26.579S54.494,9.333,39.815,9.333"/>
			</g>
		</g>
	</g>
	<g id="XMLID_8_">
		<g id="XMLID_20_">
			<g id="XMLID_154_">
				<path id="XMLID_155_" d="M19.642,71.352c-0.098-0.16-0.222-0.302-0.37-0.424c-0.148-0.122-0.316-0.218-0.504-0.287
					c-0.188-0.069-0.385-0.104-0.59-0.106c-0.377-0.003-0.697,0.067-0.961,0.211c-0.264,0.144-0.479,0.337-0.644,0.58
					c-0.165,0.244-0.287,0.522-0.364,0.834c-0.077,0.312-0.117,0.635-0.12,0.968c-0.003,0.319,0.032,0.631,0.104,0.933
					c0.072,0.303,0.189,0.576,0.351,0.818c0.161,0.243,0.373,0.438,0.634,0.586c0.262,0.148,0.58,0.223,0.957,0.226
					c0.512,0.004,0.912-0.149,1.202-0.459c0.29-0.31,0.469-0.721,0.537-1.231l1.619,0.013c-0.045,0.475-0.16,0.904-0.34,1.286
					c-0.181,0.382-0.418,0.707-0.711,0.974c-0.294,0.268-0.636,0.471-1.028,0.61c-0.392,0.139-0.822,0.206-1.291,0.202
					c-0.583-0.005-1.105-0.11-1.569-0.316c-0.463-0.206-0.854-0.488-1.171-0.846c-0.317-0.358-0.558-0.777-0.725-1.258
					c-0.167-0.481-0.248-0.998-0.243-1.552c0.005-0.568,0.094-1.095,0.269-1.58c0.174-0.485,0.423-0.908,0.745-1.267
					c0.323-0.36,0.717-0.641,1.184-0.843c0.467-0.202,0.991-0.301,1.574-0.296c0.419,0.003,0.814,0.067,1.186,0.191
					c0.372,0.124,0.704,0.302,0.997,0.535c0.293,0.233,0.534,0.521,0.723,0.864c0.189,0.342,0.307,0.734,0.352,1.175l-1.619-0.013
					C19.802,71.69,19.74,71.513,19.642,71.352z"/>
			</g>
			<g id="XMLID_150_">
				<path id="XMLID_151_" d="M23.174,71.542c0.174-0.485,0.422-0.908,0.745-1.267c0.323-0.36,0.717-0.641,1.184-0.843
					c0.467-0.202,0.992-0.301,1.574-0.296c0.59,0.005,1.114,0.112,1.574,0.322c0.46,0.21,0.848,0.497,1.165,0.862
					c0.316,0.365,0.558,0.791,0.725,1.279c0.166,0.488,0.247,1.016,0.242,1.584c-0.005,0.554-0.094,1.07-0.268,1.548
					c-0.175,0.478-0.423,0.894-0.745,1.246c-0.323,0.352-0.716,0.628-1.179,0.827c-0.463,0.199-0.989,0.295-1.579,0.291
					c-0.583-0.005-1.105-0.11-1.569-0.316c-0.464-0.206-0.854-0.488-1.171-0.846c-0.317-0.358-0.558-0.777-0.724-1.258
					c-0.168-0.481-0.249-0.998-0.244-1.552C22.909,72.553,22.998,72.027,23.174,71.542z M24.681,74.068
					c0.072,0.303,0.19,0.576,0.351,0.818c0.161,0.243,0.373,0.438,0.635,0.586c0.261,0.148,0.58,0.223,0.957,0.226
					c0.376,0.003,0.696-0.067,0.961-0.211c0.263-0.144,0.478-0.335,0.643-0.575c0.166-0.24,0.287-0.511,0.364-0.812
					c0.077-0.301,0.118-0.612,0.12-0.931c0.003-0.334-0.033-0.657-0.105-0.97c-0.072-0.313-0.189-0.593-0.35-0.84
					c-0.161-0.246-0.373-0.443-0.633-0.591c-0.262-0.148-0.581-0.223-0.957-0.226c-0.377-0.003-0.698,0.067-0.961,0.211
					c-0.265,0.144-0.48,0.337-0.645,0.58c-0.165,0.244-0.287,0.522-0.364,0.834s-0.116,0.635-0.119,0.968
					C24.575,73.454,24.609,73.766,24.681,74.068z"/>
			</g>
			<g id="XMLID_147_">
				<path id="XMLID_148_" d="M37.579,77.419l-1.246-5.188l-0.022,0L35,77.398l-1.693-0.014l-1.952-7.623l1.673,0.014l1.161,5.187
					l0.021,0l1.363-5.167l1.566,0.013l1.258,5.252l0.021,0l1.289-5.231l1.64,0.013l-2.107,7.59L37.579,77.419z"/>
			</g>
			<g id="XMLID_143_">
				<path id="XMLID_144_" d="M45.66,69.301l2.783,7.63l-1.737-0.014l-0.561-1.699l-2.845-0.023l-0.61,1.689l-1.683-0.014
					l2.938-7.583L45.66,69.301z M45.718,73.968l-0.936-2.799l-0.022,0l-1.014,2.783L45.718,73.968z"/>
			</g>
			<g id="XMLID_139_">
				<path id="XMLID_140_" d="M53.084,69.188c0.341-0.013,0.65,0.031,0.927,0.13c0.277,0.1,0.518,0.242,0.72,0.426
					c0.203,0.185,0.36,0.401,0.472,0.649c0.113,0.248,0.174,0.518,0.185,0.809c0.017,0.447-0.062,0.838-0.238,1.171
					c-0.176,0.334-0.473,0.593-0.893,0.78l0.001,0.021c0.208,0.049,0.381,0.13,0.521,0.242c0.139,0.112,0.254,0.246,0.345,0.403
					c0.092,0.157,0.16,0.33,0.207,0.52c0.045,0.19,0.08,0.38,0.101,0.572c0.011,0.12,0.024,0.262,0.037,0.425
					c0.013,0.163,0.032,0.329,0.057,0.499c0.024,0.17,0.058,0.33,0.103,0.481c0.044,0.151,0.108,0.278,0.19,0.382l-1.67,0.063
					c-0.103-0.238-0.17-0.523-0.204-0.856c-0.033-0.333-0.077-0.651-0.131-0.954c-0.072-0.396-0.203-0.682-0.395-0.86
					c-0.191-0.178-0.496-0.259-0.915-0.243L50.83,73.91l0.111,2.97l-1.67,0.063l-0.285-7.601L53.084,69.188z M52.617,72.649
					c0.383-0.014,0.667-0.111,0.853-0.288c0.184-0.177,0.27-0.458,0.256-0.841c-0.014-0.369-0.12-0.633-0.317-0.793
					c-0.199-0.16-0.489-0.232-0.872-0.218l-1.832,0.069l0.08,2.14L52.617,72.649z"/>
			</g>
			<g id="XMLID_135_">
				<path id="XMLID_136_" d="M59.76,69.135c0.486-0.069,0.948-0.055,1.388,0.041c0.44,0.096,0.835,0.277,1.184,0.543
					c0.35,0.267,0.644,0.619,0.881,1.059c0.238,0.44,0.402,0.973,0.49,1.598c0.077,0.549,0.078,1.065,0.003,1.549
					c-0.075,0.484-0.232,0.915-0.469,1.293c-0.237,0.378-0.555,0.693-0.953,0.947c-0.398,0.254-0.885,0.421-1.462,0.502
					l-3.249,0.458l-1.063-7.532L59.76,69.135z M60.51,75.291c0.24-0.034,0.466-0.105,0.68-0.214s0.397-0.266,0.547-0.47
					c0.151-0.204,0.258-0.458,0.323-0.761c0.064-0.303,0.068-0.662,0.009-1.077c-0.054-0.38-0.139-0.718-0.256-1.013
					c-0.117-0.296-0.275-0.54-0.475-0.735c-0.2-0.194-0.447-0.33-0.74-0.407c-0.295-0.077-0.645-0.086-1.053-0.029l-1.182,0.167
					l0.67,4.747L60.51,75.291z"/>
			</g>
			<g id="XMLID_131_">
				<path id="XMLID_132_" d="M17.516,79.206c0.34,0.017,0.644,0.087,0.912,0.21c0.268,0.123,0.495,0.285,0.68,0.486
					c0.186,0.201,0.324,0.43,0.415,0.687c0.09,0.257,0.129,0.531,0.114,0.822c-0.022,0.447-0.135,0.829-0.338,1.146
					c-0.204,0.317-0.523,0.55-0.957,0.7l-0.001,0.021c0.203,0.067,0.369,0.162,0.498,0.286c0.129,0.123,0.233,0.267,0.31,0.431
					c0.078,0.164,0.131,0.342,0.16,0.536c0.03,0.193,0.047,0.386,0.052,0.578c0.001,0.121,0.001,0.263,0,0.427
					c-0.001,0.164,0.003,0.331,0.013,0.502c0.009,0.171,0.03,0.334,0.061,0.488c0.032,0.154,0.084,0.287,0.157,0.397l-1.67-0.081
					c-0.081-0.246-0.124-0.536-0.129-0.87c-0.005-0.334-0.021-0.655-0.049-0.962c-0.037-0.4-0.144-0.697-0.319-0.891
					c-0.176-0.193-0.473-0.3-0.891-0.321l-1.671-0.082l-0.145,2.969l-1.67-0.081l0.371-7.598L17.516,79.206z M16.752,82.614
					c0.383,0.019,0.675-0.053,0.875-0.213s0.309-0.433,0.328-0.816c0.018-0.369-0.065-0.641-0.248-0.817
					c-0.183-0.176-0.467-0.274-0.85-0.292l-1.83-0.089l-0.104,2.139L16.752,82.614z"/>
			</g>
			<g id="XMLID_124_">
				<path id="XMLID_125_" d="M26.758,79.097l0.032,1.406l-4.016,0.093l0.038,1.63l3.685-0.085l0.03,1.299l-3.685,0.085l0.043,1.864
					l4.101-0.095l0.032,1.406l-5.773,0.133l-0.175-7.605L26.758,79.097z"/>
			</g>
			<g id="XMLID_120_">
				<path id="XMLID_121_" d="M33.509,80.802c-0.104-0.156-0.233-0.293-0.385-0.409c-0.153-0.116-0.324-0.205-0.515-0.267
					c-0.189-0.061-0.388-0.089-0.594-0.083c-0.376,0.011-0.693,0.094-0.952,0.247c-0.257,0.154-0.465,0.355-0.62,0.605
					c-0.156,0.25-0.267,0.532-0.332,0.847c-0.065,0.315-0.093,0.639-0.083,0.972c0.01,0.319,0.057,0.629,0.141,0.928
					c0.084,0.3,0.211,0.568,0.382,0.804c0.17,0.236,0.389,0.423,0.655,0.561c0.268,0.138,0.589,0.201,0.965,0.189
					c0.511-0.016,0.906-0.184,1.184-0.505c0.277-0.321,0.442-0.738,0.489-1.251l1.619-0.049c-0.028,0.477-0.126,0.91-0.291,1.298
					c-0.166,0.389-0.39,0.723-0.673,1.001c-0.283,0.279-0.617,0.495-1.003,0.649c-0.387,0.154-0.814,0.238-1.283,0.252
					c-0.582,0.018-1.109-0.067-1.58-0.256s-0.872-0.455-1.202-0.8c-0.33-0.345-0.588-0.755-0.773-1.229
					c-0.184-0.474-0.285-0.988-0.302-1.542c-0.017-0.568,0.052-1.098,0.207-1.589c0.156-0.491,0.388-0.923,0.696-1.295
					c0.309-0.372,0.693-0.668,1.151-0.888c0.458-0.22,0.979-0.339,1.561-0.357c0.419-0.013,0.816,0.035,1.193,0.145
					c0.376,0.11,0.716,0.275,1.018,0.496c0.302,0.222,0.553,0.5,0.756,0.835c0.201,0.335,0.334,0.722,0.397,1.16l-1.618,0.049
					C33.682,81.133,33.613,80.959,33.509,80.802z"/>
			</g>
			<g id="XMLID_116_">
				<path id="XMLID_117_" d="M36.44,81.526c0.155-0.491,0.387-0.923,0.695-1.295c0.309-0.372,0.692-0.668,1.151-0.888
					s0.979-0.339,1.562-0.357c0.589-0.018,1.118,0.069,1.585,0.261c0.467,0.192,0.867,0.464,1.198,0.816
					c0.33,0.352,0.588,0.769,0.774,1.25c0.185,0.481,0.286,1.006,0.303,1.573c0.017,0.554-0.052,1.073-0.208,1.557
					c-0.156,0.484-0.389,0.909-0.697,1.274c-0.309,0.365-0.691,0.655-1.146,0.871s-0.977,0.333-1.566,0.351
					c-0.582,0.018-1.109-0.067-1.58-0.256c-0.472-0.188-0.872-0.455-1.202-0.8c-0.331-0.345-0.588-0.755-0.772-1.229
					c-0.186-0.474-0.287-0.988-0.304-1.542C36.214,82.548,36.283,82.018,36.44,81.526z M38.043,83.993
					c0.084,0.3,0.212,0.568,0.382,0.804c0.17,0.236,0.389,0.423,0.657,0.561c0.266,0.138,0.588,0.201,0.965,0.189
					c0.376-0.011,0.693-0.094,0.952-0.247c0.257-0.154,0.465-0.353,0.62-0.6c0.156-0.246,0.267-0.522,0.332-0.826
					c0.065-0.304,0.094-0.616,0.084-0.935c-0.01-0.334-0.058-0.655-0.142-0.965c-0.084-0.31-0.211-0.585-0.382-0.825
					c-0.17-0.24-0.389-0.428-0.656-0.566c-0.268-0.138-0.589-0.201-0.965-0.189c-0.377,0.011-0.695,0.094-0.952,0.247
					c-0.259,0.154-0.466,0.355-0.622,0.605c-0.155,0.25-0.267,0.532-0.332,0.847c-0.065,0.315-0.092,0.639-0.082,0.972
					C37.913,83.384,37.959,83.693,38.043,83.993z"/>
			</g>
			<g id="XMLID_112_">
				<path id="XMLID_113_" d="M48.906,79.116c0.341-0.004,0.648,0.048,0.923,0.155c0.274,0.107,0.511,0.256,0.707,0.445
					c0.198,0.19,0.349,0.41,0.455,0.661c0.106,0.251,0.16,0.522,0.163,0.813c0.005,0.447-0.086,0.836-0.27,1.164
					c-0.186,0.329-0.49,0.58-0.915,0.755l0,0.021c0.207,0.055,0.378,0.14,0.514,0.256c0.136,0.116,0.248,0.253,0.335,0.412
					c0.088,0.159,0.151,0.334,0.192,0.526c0.041,0.191,0.07,0.383,0.086,0.574c0.008,0.12,0.017,0.263,0.026,0.426
					c0.009,0.163,0.023,0.33,0.043,0.5c0.019,0.17,0.049,0.332,0.09,0.484c0.041,0.152,0.101,0.281,0.18,0.387l-1.672,0.018
					c-0.095-0.24-0.155-0.527-0.18-0.861c-0.025-0.334-0.06-0.653-0.106-0.957c-0.061-0.397-0.184-0.687-0.371-0.87
					c-0.187-0.183-0.489-0.272-0.909-0.267l-1.672,0.018l0.031,2.972l-1.672,0.018l-0.08-7.606L48.906,79.116z M48.345,82.564
					c0.384-0.004,0.671-0.092,0.861-0.265c0.19-0.172,0.283-0.45,0.279-0.834c-0.004-0.369-0.103-0.636-0.296-0.801
					s-0.482-0.246-0.866-0.241l-1.832,0.019l0.023,2.141L48.345,82.564z"/>
			</g>
			<g id="XMLID_108_">
				<path id="XMLID_109_" d="M55.534,78.985c0.491-0.008,0.948,0.063,1.373,0.212c0.425,0.15,0.794,0.378,1.108,0.686
					c0.314,0.308,0.562,0.694,0.743,1.161c0.182,0.466,0.278,1.015,0.288,1.647c0.009,0.554-0.054,1.067-0.189,1.537
					c-0.135,0.471-0.343,0.879-0.626,1.225c-0.282,0.345-0.637,0.619-1.063,0.821c-0.426,0.202-0.931,0.308-1.513,0.317l-3.28,0.052
					l-0.12-7.606L55.534,78.985z M55.515,85.187c0.242-0.004,0.475-0.047,0.701-0.128c0.226-0.082,0.427-0.215,0.601-0.398
					c0.175-0.184,0.313-0.422,0.415-0.715c0.101-0.293,0.149-0.648,0.143-1.068c-0.006-0.384-0.049-0.729-0.128-1.037
					c-0.079-0.308-0.206-0.57-0.38-0.788c-0.174-0.217-0.402-0.383-0.684-0.496c-0.283-0.113-0.63-0.166-1.041-0.159l-1.194,0.019
					l0.076,4.794L55.515,85.187z"/>
			</g>
			<g id="XMLID_21_">
				<path id="XMLID_22_" d="M61.762,84.94c0.097,0.174,0.224,0.315,0.381,0.42c0.156,0.105,0.337,0.181,0.545,0.229
					c0.208,0.047,0.421,0.067,0.641,0.061c0.149-0.005,0.309-0.022,0.478-0.052c0.17-0.03,0.328-0.083,0.475-0.158
					c0.147-0.076,0.268-0.177,0.364-0.304c0.096-0.127,0.14-0.287,0.135-0.479c-0.006-0.206-0.076-0.371-0.212-0.494
					s-0.31-0.225-0.526-0.304c-0.216-0.079-0.459-0.146-0.731-0.202c-0.271-0.056-0.547-0.118-0.826-0.188
					c-0.286-0.062-0.565-0.141-0.838-0.236c-0.274-0.094-0.518-0.22-0.737-0.377c-0.218-0.157-0.396-0.356-0.535-0.597
					c-0.139-0.241-0.213-0.535-0.224-0.883c-0.012-0.39,0.061-0.732,0.22-1.025c0.158-0.292,0.369-0.539,0.633-0.739
					c0.263-0.2,0.564-0.351,0.902-0.454c0.339-0.102,0.677-0.159,1.018-0.169c0.397-0.012,0.78,0.021,1.148,0.098
					c0.368,0.078,0.699,0.212,0.988,0.402c0.289,0.19,0.522,0.437,0.7,0.741c0.176,0.303,0.27,0.676,0.284,1.116l-1.619,0.049
					c-0.021-0.227-0.075-0.413-0.161-0.56c-0.086-0.147-0.198-0.261-0.335-0.342c-0.138-0.081-0.294-0.137-0.469-0.167
					c-0.175-0.03-0.366-0.042-0.571-0.036c-0.135,0.004-0.27,0.023-0.403,0.055c-0.134,0.032-0.255,0.086-0.363,0.16
					c-0.108,0.074-0.195,0.166-0.263,0.274c-0.068,0.109-0.1,0.245-0.095,0.408c0.005,0.149,0.037,0.269,0.097,0.359
					c0.059,0.091,0.174,0.173,0.343,0.245c0.169,0.073,0.402,0.144,0.699,0.213s0.686,0.157,1.165,0.263
					c0.143,0.024,0.341,0.069,0.596,0.136c0.254,0.067,0.509,0.178,0.761,0.334c0.254,0.156,0.475,0.368,0.665,0.635
					c0.189,0.268,0.29,0.615,0.303,1.041c0.011,0.348-0.047,0.673-0.173,0.975c-0.126,0.302-0.319,0.566-0.578,0.79
					c-0.26,0.225-0.585,0.403-0.976,0.536c-0.39,0.133-0.844,0.207-1.362,0.223c-0.419,0.013-0.827-0.026-1.225-0.117
					c-0.397-0.091-0.75-0.242-1.058-0.453c-0.308-0.211-0.556-0.484-0.744-0.82c-0.188-0.335-0.285-0.737-0.293-1.206l1.619-0.049
					C61.611,84.55,61.664,84.766,61.762,84.94z"/>
			</g>
		</g>
	</g>
</g>
</svg>
