<?xml version="1.0" encoding="utf-8"?>
<!-- Generator: Adobe Illustrator 19.0.0, SVG Export Plug-In . SVG Version: 6.00 Build 0)  -->
<svg id="logo" version="1.1" id="Livello_1" xmlns="http://www.w3.org/2000/svg" xmlns:xlink="http://www.w3.org/1999/xlink" x="0px" y="0px"
	 viewBox="0 0 345.035 120.012" enable-background="new 0 0 345.035 120.012" xml:space="preserve">
<g id="XMLID_576_">
	<g id="XMLID_580_">
		<g id="XMLID_701_">
			<path id="XMLID_971_" d="M139.256,33.07c-0.388-0.632-0.874-1.19-1.458-1.67c-0.584-0.482-1.246-0.858-1.985-1.13
				c-0.74-0.271-1.516-0.411-2.328-0.417c-1.485-0.012-2.747,0.265-3.787,0.83s-1.887,1.328-2.538,2.288
				c-0.652,0.962-1.131,2.057-1.435,3.287s-0.461,2.502-0.472,3.818c-0.01,1.259,0.127,2.486,0.411,3.678
				c0.284,1.194,0.745,2.269,1.382,3.226c0.635,0.957,1.469,1.726,2.5,2.309c1.031,0.583,2.288,0.88,3.773,0.892
				c2.017,0.016,3.595-0.586,4.74-1.811c1.143-1.221,1.85-2.841,2.118-4.853l6.383,0.052c-0.179,1.873-0.631,3.565-1.342,5.07
				c-0.713,1.507-1.646,2.788-2.803,3.841c-1.157,1.055-2.507,1.856-4.051,2.404c-1.544,0.546-3.242,0.813-5.089,0.798
				c-2.297-0.019-4.358-0.434-6.185-1.247s-3.365-1.924-4.615-3.334c-1.248-1.41-2.2-3.063-2.856-4.959
				c-0.658-1.896-0.976-3.935-0.958-6.119c0.018-2.239,0.37-4.316,1.059-6.228c0.687-1.912,1.666-3.579,2.938-4.995
				c1.273-1.418,2.829-2.525,4.669-3.322s3.908-1.187,6.205-1.168c1.653,0.013,3.211,0.264,4.677,0.752
				c1.466,0.489,2.776,1.192,3.931,2.11c1.155,0.92,2.106,2.054,2.85,3.405c0.744,1.349,1.21,2.893,1.388,4.631l-6.381-0.052
				C139.888,34.399,139.642,33.704,139.256,33.07z"/>
		</g>
		<g id="XMLID_698_">
			<path id="XMLID_967_" d="M153.178,33.815c0.686-1.912,1.663-3.579,2.936-4.995c1.273-1.418,2.827-2.525,4.669-3.322
				c1.842-0.797,3.91-1.187,6.206-1.168c2.324,0.019,4.392,0.443,6.204,1.269c1.812,0.827,3.344,1.958,4.594,3.397
				c1.246,1.437,2.2,3.12,2.857,5.043c0.654,1.923,0.972,4.005,0.954,6.244c-0.018,2.184-0.369,4.218-1.055,6.103
				c-0.689,1.885-1.669,3.522-2.939,4.912c-1.273,1.389-2.823,2.476-4.648,3.259c-1.825,0.783-3.899,1.165-6.223,1.146
				c-2.297-0.019-4.358-0.434-6.187-1.247s-3.365-1.924-4.615-3.334c-1.25-1.41-2.2-3.063-2.855-4.959
				c-0.661-1.896-0.98-3.935-0.962-6.119C152.134,37.804,152.486,35.727,153.178,33.815z M159.119,43.775
				c0.284,1.194,0.747,2.269,1.382,3.226c0.635,0.957,1.469,1.726,2.504,2.309c1.027,0.583,2.286,0.88,3.773,0.892
				c1.483,0.012,2.743-0.265,3.787-0.83c1.037-0.566,1.884-1.321,2.534-2.268c0.654-0.947,1.131-2.014,1.434-3.203
				c0.304-1.187,0.464-2.411,0.474-3.671c0.011-1.316-0.129-2.59-0.413-3.825c-0.284-1.235-0.743-2.337-1.381-3.31
				c-0.635-0.971-1.469-1.747-2.497-2.329c-1.034-0.583-2.29-0.88-3.773-0.892c-1.487-0.012-2.75,0.265-3.787,0.83
				c-1.044,0.566-1.891,1.328-2.541,2.288c-0.65,0.962-1.131,2.057-1.435,3.287c-0.304,1.23-0.458,2.502-0.469,3.818
				C158.702,41.356,158.835,42.583,159.119,43.775z"/>
		</g>
		<g id="XMLID_696_">
			<path id="XMLID_964_" d="M209.965,56.984l-4.913-20.453l-0.085-0.001L199.8,56.901l-6.675-0.054l-7.695-30.051l6.596,0.054
				l4.578,20.45l0.082,0.001l5.375-20.369l6.173,0.05l4.958,20.704l0.082,0.001l5.083-20.622l6.467,0.053l-8.307,29.921
				L209.965,56.984z"/>
		</g>
		<g id="XMLID_693_">
			<path id="XMLID_926_" d="M241.822,24.984l10.969,30.078l-6.846-0.056l-2.212-6.697l-11.217-0.091l-2.406,6.659l-6.634-0.054
				l11.581-29.894L241.822,24.984z M242.051,43.381l-3.69-11.035l-0.085-0.001l-3.996,10.972L242.051,43.381z"/>
		</g>
		<g id="XMLID_690_">
			<path id="XMLID_922_" d="M271.091,24.537c1.346-0.051,2.563,0.121,3.655,0.514c1.092,0.393,2.04,0.953,2.837,1.679
				c0.8,0.728,1.421,1.58,1.861,2.557c0.444,0.979,0.685,2.042,0.728,3.188c0.066,1.762-0.245,3.303-0.938,4.617
				c-0.693,1.315-1.865,2.339-3.52,3.074l0.003,0.084c0.821,0.195,1.504,0.511,2.054,0.954c0.547,0.441,1.001,0.97,1.359,1.587
				c0.362,0.617,0.63,1.3,0.816,2.051c0.179,0.749,0.316,1.5,0.399,2.254c0.045,0.474,0.094,1.033,0.145,1.676
				s0.127,1.298,0.224,1.967c0.094,0.669,0.227,1.301,0.406,1.897c0.173,0.595,0.424,1.097,0.747,1.506l-6.585,0.247
				c-0.405-0.937-0.669-2.061-0.804-3.375c-0.131-1.312-0.305-2.566-0.517-3.762c-0.284-1.559-0.802-2.687-1.557-3.389
				c-0.755-0.7-1.957-1.019-3.607-0.957l-6.592,0.247l0.44,11.71l-6.585,0.247l-1.125-29.966L271.091,24.537z M269.25,38.182
				c1.51-0.057,2.631-0.436,3.364-1.135c0.726-0.699,1.064-1.805,1.008-3.316c-0.055-1.455-0.473-2.496-1.249-3.125
				c-0.783-0.629-1.929-0.916-3.439-0.859l-7.22,0.271l0.317,8.436L269.25,38.182z"/>
		</g>
		<g id="XMLID_685_">
			<path id="XMLID_918_" d="M297.407,24.33c1.916-0.27,3.739-0.217,5.473,0.16c1.734,0.378,3.292,1.092,4.669,2.141
				c1.381,1.051,2.54,2.441,3.475,4.177c0.938,1.733,1.583,3.834,1.932,6.301c0.305,2.163,0.309,4.199,0.012,6.106
				s-0.913,3.607-1.849,5.097c-0.936,1.489-2.189,2.734-3.757,3.732c-1.568,1-3.49,1.659-5.765,1.98L288.79,55.83L284.6,26.136
				L297.407,24.33z M300.365,48.598c0.944-0.133,1.837-0.414,2.68-0.844c0.844-0.43,1.564-1.049,2.155-1.852
				c0.594-0.805,1.019-1.806,1.275-3.002c0.253-1.194,0.267-2.609,0.036-4.246c-0.211-1.498-0.548-2.829-1.009-3.993
				c-0.461-1.165-1.084-2.13-1.872-2.896s-1.761-1.3-2.919-1.604c-1.161-0.302-2.544-0.34-4.151-0.113l-4.66,0.658l2.64,18.714
				L300.365,48.598z"/>
		</g>
		<g id="XMLID_642_">
			<path id="XMLID_914_" d="M130.873,64.03c1.342,0.065,2.54,0.341,3.596,0.827c1.056,0.486,1.95,1.125,2.682,1.917
				c0.733,0.794,1.277,1.696,1.635,2.708c0.356,1.013,0.507,2.093,0.451,3.239c-0.086,1.762-0.531,3.27-1.334,4.519
				c-0.805,1.251-2.062,2.17-3.772,2.759l-0.004,0.084c0.8,0.265,1.454,0.639,1.962,1.127c0.508,0.487,0.917,1.053,1.221,1.699
				c0.306,0.646,0.516,1.349,0.633,2.113c0.117,0.762,0.186,1.522,0.205,2.281c0.004,0.476,0.004,1.037,0.002,1.682
				c-0.004,0.645,0.013,1.304,0.051,1.979c0.037,0.674,0.117,1.316,0.241,1.925s0.332,1.13,0.618,1.565l-6.585-0.321
				c-0.319-0.969-0.487-2.111-0.507-3.431c-0.02-1.318-0.084-2.583-0.193-3.792c-0.147-1.578-0.568-2.746-1.257-3.511
				c-0.693-0.763-1.864-1.184-3.513-1.265l-6.587-0.321l-0.571,11.705l-6.585-0.321l1.461-29.952L130.873,64.03z M127.861,77.465
				c1.511,0.074,2.66-0.207,3.448-0.841s1.218-1.706,1.291-3.217c0.071-1.454-0.255-2.528-0.977-3.222s-1.84-1.079-3.35-1.152
				l-7.215-0.352l-0.411,8.432L127.861,77.465z"/>
		</g>
		<g id="XMLID_640_">
			<path id="XMLID_911_" d="M167.309,63.599l0.128,5.542l-15.831,0.365l0.148,6.424l14.526-0.335l0.118,5.122l-14.526,0.335
				l0.17,7.348l16.166-0.373l0.128,5.542l-22.757,0.525l-0.692-29.979L167.309,63.599z"/>
		</g>
		<g id="XMLID_638_">
			<path id="XMLID_908_" d="M193.921,70.322c-0.409-0.617-0.917-1.155-1.519-1.612c-0.602-0.459-1.276-0.809-2.029-1.053
				c-0.746-0.242-1.529-0.352-2.342-0.327c-1.483,0.045-2.731,0.37-3.752,0.976c-1.014,0.605-1.831,1.399-2.444,2.384
				c-0.616,0.986-1.051,2.099-1.307,3.34c-0.256,1.241-0.368,2.518-0.328,3.833c0.038,1.259,0.226,2.479,0.556,3.659
				c0.33,1.182,0.831,2.239,1.505,3.17c0.671,0.932,1.535,1.668,2.584,2.211c1.056,0.542,2.322,0.791,3.805,0.746
				c2.016-0.061,3.572-0.724,4.669-1.992c1.093-1.264,1.741-2.91,1.929-4.931l6.382-0.194c-0.111,1.879-0.496,3.587-1.147,5.118
				c-0.654,1.533-1.538,2.849-2.653,3.946c-1.116,1.099-2.434,1.951-3.954,2.558c-1.524,0.605-3.21,0.937-5.058,0.993
				c-2.296,0.07-4.371-0.266-6.227-1.008c-1.855-0.742-3.436-1.794-4.739-3.154c-1.3-1.361-2.316-2.976-3.047-4.845
				c-0.727-1.869-1.124-3.895-1.19-6.078c-0.068-2.238,0.204-4.327,0.815-6.264c0.615-1.937,1.531-3.64,2.745-5.105
				c1.217-1.466,2.731-2.632,4.537-3.499s3.858-1.336,6.154-1.406c1.654-0.05,3.219,0.14,4.702,0.572s2.823,1.084,4.012,1.957
				c1.189,0.875,2.18,1.972,2.979,3.293c0.792,1.32,1.317,2.844,1.565,4.574l-6.378,0.194
				C194.603,71.626,194.333,70.94,193.921,70.322z"/>
		</g>
		<g id="XMLID_589_">
			<path id="XMLID_904_" d="M205.475,73.177c0.611-1.937,1.524-3.64,2.741-5.105c1.217-1.466,2.728-2.632,4.537-3.499
				c1.81-0.867,3.861-1.336,6.157-1.406c2.323-0.071,4.406,0.273,6.248,1.029c1.842,0.756,3.417,1.828,4.721,3.218
				c1.301,1.388,2.318,3.033,3.049,4.929c0.728,1.896,1.126,3.965,1.194,6.203c0.066,2.183-0.207,4.229-0.819,6.139
				c-0.616,1.91-1.533,3.584-2.747,5.021c-1.218,1.437-2.726,2.582-4.519,3.435s-3.852,1.314-6.175,1.384
				c-2.296,0.07-4.371-0.266-6.23-1.008c-1.859-0.742-3.436-1.794-4.739-3.154s-2.316-2.976-3.043-4.845
				c-0.734-1.869-1.13-3.895-1.197-6.078C204.585,77.204,204.857,75.115,205.475,73.177z M211.795,82.9
				c0.33,1.182,0.834,2.238,1.505,3.17c0.671,0.932,1.535,1.668,2.591,2.211c1.049,0.543,2.319,0.791,3.805,0.746
				c1.483-0.045,2.731-0.37,3.752-0.976c1.014-0.605,1.832-1.393,2.445-2.364c0.617-0.971,1.052-2.056,1.31-3.256
				c0.258-1.198,0.371-2.427,0.333-3.686c-0.04-1.315-0.229-2.583-0.56-3.806c-0.331-1.223-0.833-2.307-1.508-3.254
				c-0.672-0.946-1.535-1.689-2.585-2.231c-1.056-0.542-2.322-0.791-3.805-0.746c-1.486,0.045-2.738,0.37-3.752,0.976
				c-1.021,0.605-1.838,1.4-2.451,2.384c-0.613,0.986-1.051,2.099-1.307,3.34c-0.256,1.241-0.361,2.517-0.321,3.833
				C211.285,80.5,211.466,81.72,211.795,82.9z"/>
		</g>
		<g id="XMLID_586_">
			<path id="XMLID_900_" d="M254.621,63.676c1.343-0.014,2.555,0.19,3.64,0.613c1.081,0.423,2.014,1.008,2.787,1.755
				c0.78,0.749,1.377,1.618,1.795,2.606c0.417,0.99,0.63,2.06,0.642,3.206c0.019,1.764-0.338,3.295-1.063,4.59
				c-0.732,1.296-1.931,2.288-3.606,2.978l0.001,0.084c0.816,0.217,1.489,0.552,2.027,1.009c0.538,0.456,0.978,0.996,1.319,1.623
				c0.345,0.627,0.595,1.317,0.757,2.072c0.162,0.754,0.276,1.508,0.338,2.264c0.032,0.475,0.066,1.035,0.103,1.679
				c0.034,0.644,0.092,1.301,0.168,1.972c0.075,0.671,0.195,1.307,0.355,1.907s0.398,1.108,0.71,1.526l-6.593,0.069
				c-0.376-0.948-0.61-2.079-0.709-3.395c-0.099-1.315-0.236-2.573-0.419-3.774c-0.239-1.566-0.726-2.708-1.461-3.43
				c-0.736-0.72-1.929-1.072-3.583-1.054l-6.593,0.069l0.123,11.718l-6.593,0.069l-0.315-29.986L254.621,63.676z M252.409,77.266
				c1.514-0.016,2.645-0.365,3.393-1.044c0.748-0.68,1.116-1.775,1.1-3.288c-0.015-1.456-0.406-2.508-1.168-3.158
				c-0.762-0.65-1.9-0.968-3.414-0.952l-7.222,0.076l0.089,8.442L252.409,77.266z"/>
		</g>
		<g id="XMLID_583_">
			<path id="XMLID_896_" d="M280.749,63.161c1.934-0.031,3.737,0.248,5.411,0.837c1.674,0.59,3.131,1.492,4.367,2.703
				c1.24,1.214,2.217,2.737,2.93,4.575c0.716,1.836,1.096,4.001,1.135,6.492c0.035,2.184-0.214,4.205-0.745,6.061
				c-0.531,1.856-1.353,3.465-2.467,4.828c-1.113,1.361-2.511,2.441-4.191,3.237c-1.679,0.797-3.669,1.214-5.966,1.25l-12.932,0.205
				l-0.475-29.984L280.749,63.161z M280.674,87.609c0.953-0.015,1.874-0.184,2.764-0.505c0.891-0.322,1.682-0.847,2.368-1.571
				c0.689-0.725,1.235-1.666,1.637-2.82c0.399-1.153,0.589-2.556,0.562-4.208c-0.024-1.512-0.193-2.875-0.506-4.087
				c-0.313-1.214-0.812-2.248-1.499-3.106c-0.687-0.857-1.586-1.508-2.697-1.954c-1.115-0.444-2.482-0.653-4.105-0.627l-4.706,0.075
				l0.299,18.897L280.674,87.609z"/>
		</g>
		<g id="XMLID_581_">
			<path id="XMLID_893_" d="M305.301,86.636c0.383,0.688,0.882,1.24,1.5,1.656c0.614,0.416,1.328,0.715,2.147,0.901
				c0.819,0.185,1.66,0.266,2.527,0.24c0.588-0.018,1.218-0.087,1.885-0.204c0.67-0.119,1.293-0.326,1.872-0.624
				s1.056-0.697,1.434-1.199s0.554-1.13,0.531-1.887c-0.025-0.811-0.301-1.461-0.835-1.949s-1.224-0.886-2.074-1.197
				c-0.851-0.311-1.809-0.576-2.883-0.795c-1.07-0.221-2.155-0.466-3.257-0.742c-1.129-0.244-2.229-0.555-3.304-0.929
				c-1.078-0.372-2.044-0.868-2.904-1.487c-0.86-0.618-1.561-1.403-2.109-2.354c-0.549-0.949-0.84-2.11-0.882-3.482
				c-0.047-1.539,0.241-2.885,0.866-4.039c0.622-1.152,1.454-2.123,2.497-2.912c1.036-0.787,2.225-1.382,3.557-1.789
				c1.335-0.403,2.669-0.626,4.015-0.667c1.565-0.047,3.073,0.081,4.526,0.388c1.452,0.306,2.754,0.835,3.895,1.583
				c1.141,0.75,2.06,1.724,2.759,2.922c0.693,1.196,1.066,2.664,1.118,4.398l-6.382,0.194c-0.082-0.893-0.296-1.629-0.635-2.207
				c-0.339-0.578-0.78-1.028-1.32-1.347c-0.543-0.32-1.158-0.539-1.849-0.659c-0.691-0.119-1.441-0.167-2.251-0.142
				c-0.533,0.016-1.064,0.089-1.59,0.218c-0.53,0.127-1.005,0.338-1.431,0.632c-0.425,0.293-0.77,0.653-1.038,1.081
				s-0.395,0.964-0.375,1.608c0.018,0.588,0.145,1.061,0.382,1.416c0.233,0.359,0.687,0.68,1.353,0.968
				c0.665,0.289,1.583,0.569,2.754,0.841c1.171,0.272,2.703,0.619,4.593,1.037c0.564,0.096,1.345,0.274,2.348,0.537
				c1,0.264,2.005,0.703,3.001,1.318c1,0.614,1.873,1.449,2.62,2.504c0.743,1.056,1.144,2.424,1.195,4.103
				c0.042,1.372-0.186,2.652-0.68,3.844c-0.497,1.191-1.259,2.23-2.279,3.116c-1.026,0.886-2.308,1.59-3.848,2.112
				c-1.537,0.524-3.326,0.816-5.369,0.878c-1.654,0.05-3.262-0.104-4.829-0.462c-1.563-0.358-2.956-0.953-4.171-1.785
				s-2.192-1.908-2.933-3.231c-0.741-1.321-1.124-2.907-1.153-4.756l6.382-0.194C304.707,85.098,304.914,85.947,305.301,86.636z"/>
		</g>
	</g>
	<g id="XMLID_575_">
		<path id="XMLID_891_" d="M76.531,35.109c-7.945,0-14.409,6.464-14.409,14.409s6.464,14.409,14.409,14.409
			S90.94,57.463,90.94,49.518S84.476,35.109,76.531,35.109z"/>
		<path id="XMLID_897_" d="M30.454,22.773V95.72h72.948V22.773H30.454z M76.531,69.927c-11.253,0-20.409-9.156-20.409-20.409
			s9.156-20.409,20.409-20.409S96.94,38.265,96.94,49.518S87.784,69.927,76.531,69.927z"/>
	</g>
</g>
</svg>