<?xml version="1.0" encoding="utf-8"?>
<!-- Generator: Adobe Illustrator 19.0.0, SVG Export Plug-In . SVG Version: 6.00 Build 0)  -->
<svg version="1.1" id="Livello_1" xmlns="http://www.w3.org/2000/svg" xmlns:xlink="http://www.w3.org/1999/xlink" x="0px" y="0px"
	 viewBox="-370.2 585.5 70 19.5" enable-background="new -370.2 585.5 70 19.5" xml:space="preserve">
<g id="XMLID_1_">
	<path id="XMLID_42_" fill="#FFFFFF" d="M-362.2,588.5c1.2,0,2.1,0.3,2.7,0.8c0.7,0.6,1,1.3,1,2.2c0,1.2-0.6,1.9-1.9,2.3v0.1
		c0.7,0.2,1.3,0.5,1.7,1c0.4,0.5,0.6,1.1,0.6,1.8c0,0.6-0.1,1-0.3,1.5c-0.2,0.4-0.5,0.8-0.8,1.1c-0.7,0.6-1.7,0.9-2.9,0.9h-5.6
		v-11.6H-362.2z M-361.5,592.9c0.3-0.2,0.4-0.5,0.4-1c0-0.4-0.1-0.8-0.4-1c-0.3-0.2-0.6-0.3-1.1-0.3h-2.5v2.6h2.5
		C-362.1,593.2-361.8,593.1-361.5,592.9z M-361.1,597.6c0.3-0.3,0.4-0.6,0.4-1.1c0-0.5-0.2-0.9-0.5-1.1c-0.3-0.2-0.7-0.4-1.2-0.4
		h-2.7v3h2.7C-361.8,598-361.4,597.9-361.1,597.6z"/>
	<path id="XMLID_46_" fill="#FFFFFF" d="M-351.4,598.9L-351.4,598.9c-0.3,0.5-0.7,0.8-1.1,1.1c-0.4,0.2-0.9,0.3-1.4,0.3
		c-0.9,0-1.7-0.3-2.2-0.8s-0.7-1.3-0.7-2.2v-5.5h2.4v5c0,0.5,0.1,0.8,0.3,1.1c0.2,0.2,0.6,0.4,1,0.4c0.5,0,0.9-0.2,1.2-0.5
		c0.3-0.3,0.4-0.8,0.4-1.3v-4.7h2.4v8.3h-2.3V598.9z"/>
	<path id="XMLID_48_" fill="#FFFFFF" d="M-345.9,602.9c-0.2,0-0.3,0-0.5,0c-0.2,0-0.4,0-0.5,0c-0.2,0-0.3,0-0.3,0V601h0.1
		c0,0,0.1,0,0.1,0c0.1,0,0.2,0,0.3,0h0.3h0.1c0.7,0,1.1-0.3,1.2-0.8c0-0.1,0-0.4-0.1-0.7s-0.2-0.6-0.3-1l-2.6-6.6h2.6l1.1,3.2
		c0.1,0.3,0.2,0.6,0.3,0.9s0.2,0.7,0.2,0.9c0.1,0.3,0.1,0.7,0.2,1h0c0.1-0.3,0.2-0.7,0.2-1l0.2-0.9c0.1-0.3,0.2-0.6,0.3-0.9l1-3.2
		h2.4l-3,8.5c-0.2,0.5-0.3,0.9-0.5,1.2c-0.2,0.3-0.4,0.6-0.6,0.8s-0.5,0.3-0.8,0.4s-0.6,0.1-1,0.1H-345.9z"/>
	<path id="XMLID_50_" fill="#FFFFFF" d="M-332.1,588.5l3.1,5c0.2,0.3,0.4,0.6,0.5,1c0.2,0.3,0.4,0.7,0.5,1l0.5,1.1h0
		c0-0.4-0.1-0.8-0.1-1.2c0-0.3,0-0.7,0-1.1c0-0.4,0-0.8,0-1.1v-4.7h2.5v11.6h-2.7l-3-5c-0.2-0.3-0.4-0.6-0.5-1
		c-0.2-0.4-0.4-0.7-0.5-1c-0.2-0.4-0.4-0.7-0.5-1.1h0l0.1,1.2c0,0.3,0,0.7,0.1,1.1c0,0.4,0,0.8,0,1.1v4.7h-2.5v-11.6H-332.1z"/>
	<path id="XMLID_52_" fill="#FFFFFF" d="M-321.1,600.1c-0.5-0.2-1-0.5-1.4-0.9s-0.7-0.9-0.9-1.4c-0.2-0.5-0.3-1.1-0.3-1.7
		s0.1-1.2,0.3-1.7c0.2-0.5,0.5-1,0.9-1.4c0.4-0.4,0.8-0.7,1.4-0.9c0.5-0.2,1.1-0.3,1.8-0.3c0.7,0,1.3,0.1,1.8,0.3
		c0.5,0.2,1,0.5,1.4,0.9c0.4,0.4,0.7,0.9,0.9,1.4c0.2,0.5,0.3,1.1,0.3,1.7s-0.1,1.2-0.3,1.7c-0.2,0.5-0.5,1-0.9,1.4
		s-0.8,0.7-1.4,0.9c-0.5,0.2-1.1,0.3-1.8,0.3C-319.9,600.4-320.5,600.3-321.1,600.1z M-317.9,597.9c0.3-0.5,0.5-1.1,0.5-1.9
		c0-0.8-0.2-1.4-0.5-1.9c-0.3-0.5-0.8-0.7-1.4-0.7c-0.6,0-1.1,0.2-1.4,0.7c-0.3,0.5-0.5,1.1-0.5,1.9c0,0.8,0.2,1.4,0.5,1.9
		c0.3,0.5,0.8,0.7,1.4,0.7C-318.7,598.6-318.2,598.4-317.9,597.9z"/>
	<path id="XMLID_55_" fill="#FFFFFF" d="M-312.2,591.8l0.9,3.2c0.1,0.2,0.1,0.5,0.2,0.8c0.1,0.3,0.1,0.6,0.2,0.8
		c0.1,0.3,0.1,0.6,0.1,0.9h0c0.1-0.3,0.1-0.6,0.2-0.9c0.1-0.3,0.1-0.6,0.2-0.9s0.1-0.6,0.2-0.8l0.8-3.2h2.1l0.9,3.2
		c0.1,0.2,0.1,0.5,0.2,0.8c0.1,0.3,0.1,0.6,0.2,0.9c0.1,0.3,0.1,0.6,0.2,0.9h0c0-0.3,0.1-0.6,0.1-0.9c0.1-0.3,0.1-0.5,0.2-0.8
		c0.1-0.3,0.1-0.6,0.2-0.8l0.9-3.2h2.4l-2.6,8.3h-2.3l-0.9-3.4c-0.1-0.2-0.1-0.5-0.2-0.8c-0.1-0.3-0.1-0.6-0.2-0.8
		c-0.1-0.3-0.1-0.6-0.2-0.9h0c-0.1,0.3-0.1,0.6-0.2,0.9c-0.1,0.3-0.1,0.5-0.2,0.8c-0.1,0.3-0.1,0.6-0.2,0.8l-0.9,3.4h-2.3l-2.6-8.3
		H-312.2z"/>
</g>
</svg>
