<?xml version="1.0" encoding="utf-8"?>
<!-- Generator: Adobe Illustrator 19.0.0, SVG Export Plug-In . SVG Version: 6.00 Build 0)  -->
<svg version="1.1" id="Capa_1" xmlns="http://www.w3.org/2000/svg" xmlns:xlink="http://www.w3.org/1999/xlink" x="0px" y="0px"
	 viewBox="-443 628.4 19.2 19.2" style="enable-background:new -443 628.4 19.2 19.2;" xml:space="preserve">
<g>
	<g id="Layer_1_107_">
		<g>
			<path d="M-424.4,631.9c-0.2-0.2-0.5-0.3-0.8-0.3H-439l-0.2-1.2c-0.1-0.5-0.5-0.8-1-0.8h-2.2c-0.6,0-1,0.4-1,1c0,0.6,0.4,1,1,1
				h1.4l1.9,11.2v0.1c0,0.1,0,0.1,0.1,0.2c0,0.1,0.1,0.1,0.1,0.2l0.1,0.1c0.1,0.1,0.1,0.1,0.2,0.1c0,0,0.1,0,0.1,0.1
				c0.1,0,0.2,0.1,0.4,0.1h11c0.6,0,1-0.4,1-1c0-0.6-0.4-1-1-1h-10.2l-0.2-1h11.3c0.5,0,0.9-0.4,1-0.9l1-7
				C-424.1,632.4-424.2,632.1-424.4,631.9z M-426.3,633.6l-0.3,2h-3.6v-2H-426.3z M-431.2,633.6v2h-3v-2H-431.2z M-431.2,636.6v2h-3
				v-2H-431.2z M-435.2,633.6v2h-3c-0.1,0-0.1,0-0.1,0l-0.3-2H-435.2z M-438.1,636.6h3v2h-2.7L-438.1,636.6z M-430.2,638.6v-2h3.4
				l-0.3,2H-430.2z"/>
			<circle cx="-436.6" cy="646.1" r="1.5"/>
			<circle cx="-427.6" cy="646.1" r="1.5"/>
		</g>
	</g>
</g>
</svg>
