<svg enable-background="new -443 628.4 19.2 19.2" viewBox="-443 628.4 19.2 19.2" xmlns="http://www.w3.org/2000/svg"><path d="m-424.4 631.9c-.2-.2-.5-.3-.8-.3h-13.8l-.2-1.2c-.1-.5-.5-.8-1-.8h-2.2c-.6 0-1 .4-1 1s.4 1 1 1h1.4l1.9 11.2v.1c0 .1 0 .1.1.2 0 .1.1.1.1.2l.1.1c.1.1.1.1.2.1 0 0 .1 0 .1.1.1 0 .2.1.4.1h11c.6 0 1-.4 1-1s-.4-1-1-1h-10.2l-.2-1h11.3c.5 0 .9-.4 1-.9l1-7c.1-.4 0-.7-.2-.9zm-1.9 1.7-.3 2h-3.6v-2zm-4.9 0v2h-3v-2zm0 3v2h-3v-2zm-4-3v2h-3c-.1 0-.1 0-.1 0l-.3-2zm-2.9 3h3v2h-2.7zm7.9 2v-2h3.4l-.3 2z"/><circle cx="-436.6" cy="646.1" r="1.5"/><circle cx="-427.6" cy="646.1" r="1.5"/></svg>