<?xml version="1.0" encoding="utf-8"?>
<!-- Generator: Adobe Illustrator 19.0.0, SVG Export Plug-In . SVG Version: 6.00 Build 0)  -->
<svg version="1.1" id="Capa_1" xmlns="http://www.w3.org/2000/svg" xmlns:xlink="http://www.w3.org/1999/xlink" x="0px" y="0px"
	 viewBox="-287 411.6 19.2 19.2" style="enable-background:new -287 411.6 19.2 19.2;" xml:space="preserve">
<style type="text/css">
	.st0{fill:#FFFFFF;}
</style>
<g>
	<g id="Layer_1_107_">
		<g>
			<path class="st0" d="M-268,414.6c-0.2-0.2-0.5-0.3-0.8-0.3h-13.8l-0.2-1.2c-0.1-0.5-0.5-0.8-1-0.8h-2.2c-0.6,0-1,0.4-1,1
				c0,0.6,0.4,1,1,1h1.4l1.9,11.2c0,0,0,0.1,0,0.1c0,0.1,0,0.1,0.1,0.2c0,0.1,0.1,0.1,0.1,0.2c0,0,0.1,0.1,0.1,0.1
				c0.1,0.1,0.1,0.1,0.2,0.1c0,0,0.1,0,0.1,0.1c0.1,0,0.2,0.1,0.4,0.1c0,0,11,0,11,0c0.6,0,1-0.4,1-1c0-0.6-0.4-1-1-1h-10.2l-0.2-1
				h11.3c0.5,0,0.9-0.4,1-0.9l1-7C-267.7,415.1-267.8,414.8-268,414.6z M-269.9,416.3l-0.3,2h-3.6v-2H-269.9z M-274.8,416.3v2h-3v-2
				H-274.8z M-274.8,419.3v2h-3v-2H-274.8z M-278.8,416.3v2h-3c-0.1,0-0.1,0-0.1,0l-0.3-2H-278.8z M-281.7,419.3h3v2h-2.7
				L-281.7,419.3z M-273.8,421.3v-2h3.4l-0.3,2H-273.8z"/>
			<circle class="st0" cx="-280.2" cy="428.8" r="1.5"/>
			<circle class="st0" cx="-271.2" cy="428.8" r="1.5"/>
		</g>
	</g>
</g>
</svg>
