<?xml version="1.0" encoding="UTF-8" standalone="no"?>
<!DOCTYPE svg PUBLIC "-//W3C//DTD SVG 1.1//EN" "http://www.w3.org/Graphics/SVG/1.1/DTD/svg11.dtd">
<svg width="100%" height="100%" viewBox="0 0 710 580" version="1.1" xmlns="http://www.w3.org/2000/svg" xmlns:xlink="http://www.w3.org/1999/xlink" xml:space="preserve" xmlns:serif="http://www.serif.com/" style="fill-rule:evenodd;clip-rule:evenodd;stroke-linejoin:round;stroke-miterlimit:2;">
    <g id="shopping-cart" serif:id="shopping-cart" transform="matrix(1,0,0,1,0,-327.233)">
        <rect style="fill:none"/>
        <g transform="matrix(1,0,0,1,0,327.233)">
            <path style="fill:gray" d="M518.873,459.565C491.12,459.565 468.588,482.097 468.588,509.85C468.588,537.603 491.12,560.135 518.873,560.135C546.626,560.135 569.158,537.603 569.158,509.85C569.158,482.097 546.626,459.565 518.873,459.565ZM284.619,459.565C256.866,459.565 234.334,482.097 234.334,509.85C234.334,537.603 256.866,560.135 284.619,560.135C312.372,560.135 334.904,537.603 334.904,509.85C334.904,482.097 312.372,459.565 284.619,459.565ZM518.873,503.781C522.223,503.781 524.942,506.5 524.942,509.85C524.942,513.199 522.223,515.919 518.873,515.919C515.524,515.919 512.804,513.199 512.804,509.85C512.804,506.5 515.524,503.781 518.873,503.781ZM284.619,503.781C287.968,503.781 290.687,506.5 290.687,509.85C290.687,513.199 287.968,515.919 284.619,515.919C281.269,515.919 278.55,513.199 278.55,509.85C278.55,506.5 281.269,503.781 284.619,503.781ZM267.146,389.529L273.47,413.558L546.918,411.92C559.119,411.847 569.085,421.694 569.158,433.896C569.231,446.097 559.384,456.063 547.182,456.136L256.586,457.876C246.494,457.937 237.642,451.155 235.074,441.395L147.685,109.329L50.27,108.913C38.068,108.86 28.204,98.912 28.256,86.71C28.309,74.508 38.257,64.644 50.459,64.696L164.842,65.186C174.85,65.228 183.581,71.989 186.128,81.667L198.042,126.941L615.873,127.595C622.44,127.605 628.663,130.534 632.855,135.589C637.047,140.644 638.776,147.301 637.571,153.757L596.96,371.475C595.008,381.941 585.874,389.529 575.227,389.529L267.146,389.529ZM209.683,171.175L255.51,345.313L556.861,345.313L589.232,171.769L209.683,171.175Z"/>
        </g>
    </g>
</svg>
