<?xml version="1.0" encoding="utf-8"?>
<!-- Generator: Adobe Illustrator 19.0.0, SVG Export Plug-In . SVG Version: 6.00 Build 0)  -->
<svg version="1.1" id="Livello_1" xmlns="http://www.w3.org/2000/svg" xmlns:xlink="http://www.w3.org/1999/xlink" x="0px" y="0px"
	 viewBox="721 -353.1 110.9 110.9" style="enable-background:new 721 -353.1 110.9 110.9;" xml:space="preserve">
<style type="text/css">
	.st0{fill:#FFFFFF;}
</style>
<path class="st0" d="M783.8-321.3v28.9c0,0.6-0.2,1.1-0.6,1.5s-0.9,0.6-1.5,0.6h-20.6c-0.6,0-1.1-0.2-1.5-0.6s-0.6-0.9-0.6-1.5v-4.1
	c0-0.6,0.2-1.1,0.6-1.5s0.9-0.6,1.5-0.6h14.4v-22.7c0-0.6,0.2-1.1,0.6-1.5s0.9-0.6,1.5-0.6h4.1c0.6,0,1.1,0.2,1.5,0.6
	S783.8-321.9,783.8-321.3z M810.6-298.6c0-6.4-1.6-12.2-4.7-17.6c-3.1-5.4-7.4-9.6-12.8-12.8c-5.4-3.1-11.2-4.7-17.6-4.7
	s-12.2,1.6-17.6,4.7c-5.4,3.1-9.6,7.4-12.8,12.8c-3.1,5.4-4.7,11.2-4.7,17.6c0,6.4,1.6,12.2,4.7,17.6c3.1,5.4,7.4,9.6,12.8,12.8
	c5.4,3.1,11.2,4.7,17.6,4.7s12.2-1.6,17.6-4.7c5.4-3.1,9.6-7.4,12.8-12.8C809-286.4,810.6-292.3,810.6-298.6z M825-298.6
	c0,9-2.2,17.3-6.6,24.8c-4.4,7.6-10.4,13.6-18,18c-7.6,4.4-15.9,6.6-24.8,6.6s-17.3-2.2-24.8-6.6c-7.6-4.4-13.6-10.4-18-18
	c-4.4-7.6-6.6-15.9-6.6-24.8s2.2-17.3,6.6-24.8s10.4-13.6,18-18c7.6-4.4,15.9-6.6,24.8-6.6s17.3,2.2,24.8,6.6
	c7.6,4.4,13.6,10.4,18,18S825-307.6,825-298.6z"/>
</svg>
