<?xml version="1.0" encoding="utf-8"?>
<!-- Generator: Adobe Illustrator 19.0.0, SVG Export Plug-In . SVG Version: 6.00 Build 0)  -->
<svg version="1.1" id="Livello_1" xmlns="http://www.w3.org/2000/svg" xmlns:xlink="http://www.w3.org/1999/xlink" x="0px" y="0px"
	 viewBox="-398 582.7 110.9 110.9" style="enable-background:new -398 582.7 110.9 110.9;" xml:space="preserve">
<path d="M-334.5,614.7v28.9c0,0.6-0.2,1.1-0.6,1.5c-0.4,0.4-0.9,0.6-1.5,0.6h-20.6c-0.6,0-1.1-0.2-1.5-0.6c-0.4-0.4-0.6-0.9-0.6-1.5
	v-4.1c0-0.6,0.2-1.1,0.6-1.5c0.4-0.4,0.9-0.6,1.5-0.6h14.4v-22.7c0-0.6,0.2-1.1,0.6-1.5c0.4-0.4,0.9-0.6,1.5-0.6h4.1
	c0.6,0,1.1,0.2,1.5,0.6C-334.7,613.6-334.5,614.1-334.5,614.7z M-307.7,637.4c0-6.4-1.6-12.2-4.7-17.6c-3.1-5.4-7.4-9.6-12.8-12.8
	c-5.4-3.1-11.2-4.7-17.6-4.7s-12.2,1.6-17.6,4.7c-5.4,3.1-9.6,7.4-12.8,12.8c-3.1,5.4-4.7,11.2-4.7,17.6c0,6.4,1.6,12.2,4.7,17.6
	c3.1,5.4,7.4,9.6,12.8,12.8c5.4,3.1,11.2,4.7,17.6,4.7s12.2-1.6,17.6-4.7c5.4-3.1,9.6-7.4,12.8-12.8
	C-309.3,649.6-307.7,643.7-307.7,637.4z M-293.3,637.4c0,9-2.2,17.3-6.6,24.8c-4.4,7.6-10.4,13.6-18,18c-7.6,4.4-15.9,6.6-24.8,6.6
	s-17.3-2.2-24.8-6.6c-7.6-4.4-13.6-10.4-18-18c-4.4-7.6-6.6-15.9-6.6-24.8c0-8.9,2.2-17.3,6.6-24.8s10.4-13.6,18-18
	c7.6-4.4,15.9-6.6,24.8-6.6s17.3,2.2,24.8,6.6c7.6,4.4,13.6,10.4,18,18C-295.5,620.2-293.3,628.4-293.3,637.4z"/>
</svg>
