<?xml version="1.0" encoding="utf-8"?>
<!-- Generator: Adobe Illustrator 19.0.0, SVG Export Plug-In . SVG Version: 6.00 Build 0)  -->
<svg version="1.1" id="Livello_1" xmlns="http://www.w3.org/2000/svg" xmlns:xlink="http://www.w3.org/1999/xlink" x="0px" y="0px"
	 viewBox="0 0 142.3 107.7" style="enable-background:new 0 0 142.3 107.7;" xml:space="preserve">
<g id="XMLID_94_">
	
		<ellipse id="XMLID_124_" transform="matrix(-0.4712 -0.882 0.882 -0.4712 79.0584 210.998)" cx="102.8" cy="81.8" rx="0.7" ry="1.1"/>
	<path id="XMLID_142_" d="M110,77.9c-1.3-2.4-5.5-2.6-9.5-0.4c-4,2.1-6.2,5.8-4.9,8.2c1.3,2.4,5.5,2.6,9.5,0.4
		C109.1,84,111.3,80.3,110,77.9z M103.7,83.5c-1.6,0.9-3.3,0.8-3.8-0.2s0.4-2.4,2-3.3c1.6-0.9,3.3-0.8,3.8,0.2
		C106.2,81.2,105.3,82.7,103.7,83.5z"/>
	<path id="XMLID_146_" d="M97.9,77.8c0.6-0.3,0.5-1,0.5-1l0-3.1l5.3-2.7c0,0.1,0,0.2,0,0.3l0,2.9c0,0.1,0,0.7,0.4,1
		c0.2,0.2,0.5,0.2,0.8,0.1c0.3-0.1,2.3-0.7,2.3-0.7c1.1-0.3,1.4-1.1,1.5-1.6v-5.4c0-0.8-0.3-1.1-0.6-1.3c-0.9-0.5-2.2,0.4-2.4,0.5
		l-3.8,2c1-2,1.3-3.6,0.8-4.6c-0.3-0.6-0.8-0.9-1.1-1c0-0.2-0.1-0.4-0.2-0.6c-0.4-0.9-1.2-1.2-1.6-1.3c-0.2-0.5-0.6-0.7-0.8-0.8
		c-0.5-0.1-1,0-1.4,0.2c-0.2-0.2-0.3-0.4-0.5-0.5c-0.9-0.5-2.3,0.8-7.3,6.4c-1.6,1.8-3.5,3.9-5.4,5.8c-0.5,0.6-1.1,1.1-1.6,1.7
		c-4.3,4.2-7.4,6.4-9.3,6.4c-3,0-5.3-0.9-6.6-2.5c-1-1.2-1.4-2.8-1.1-4.5c0.3-1.6,0.7-2.3,2.9-4.7c2.9-3.2,0.8-9.7-1.9-16.8
		c0,0,0,0,0,0c0,0,0,0,0,0c-0.2-0.5-0.4-0.9-0.5-1.4c-1.7-4.2-3.3-7.5-3.3-7.5l-0.2-0.4l-19.9,7l8.8,21.3L38.8,86.7h50.8l3.1-7.1
		l-7.4-6.8c1.8-1.8,3.5-3.8,5-5.5c2.5-2.8,5.3-5.9,6.1-6.2c0.1,0.1,0.2,0.2,0.4,0.5c1.4,2.5,2.1,8.4,1.4,8.9l0,0
		c-0.3-0.1-0.7-1.3-1-1.9c-0.5-1.4-1-2.6-1.9-2.6c0,0,0,0,0,0c-0.8,0-1.2,0.9-1.6,1.8c-1.4,3.6-1.6,3.6-2.6,3.6h0
		c-0.3,0-0.5,0.2-0.5,0.5c0,0.3,0.2,0.5,0.5,0.5c0,0,0,0,0,0c1.7,0,2.1-0.3,3.6-4.2c0.4-1,0.6-1.2,0.6-1.2c0.3,0.1,0.7,1.3,1,1.9
		c0.3,0.8,0.6,1.6,1,2.1l-2.2,1.1c-0.1,0-1.9,0.9-1.9,3.7v2.2c0,0.1,0,0.8,0.5,1.1c0.2,0.1,0.4,0.2,0.6,0.2c0.3,0,0.6-0.1,1-0.3
		L97.9,77.8z M51.8,85.7l2.8-12.9l0.5,0l-1.1,5.7l0.1-0.1l-1.6,7.2H51.8z M56.6,72.9l-0.5,3.4l-0.9,0.4l0.8-3.8L56.6,72.9z
		 M61.7,77.3l-0.8-0.6l0.7-3.5l0.8,0L61.7,77.3z M54.9,78l1-0.5l-1.6,8.2h-1.1L54.9,78z M56.7,77.1l1.5-0.8l-1.6,9.4H55L56.7,77.1z
		 M59,76.4l1.1,0.9l-1.6,8.4h-1.1L59,76.4z M60.7,77.8l0.9,0.7l-1.3,7.1h-1.1L60.7,77.8z M62.2,79.1l0.1,0.1l1-5.9l1.3,0.1
		l-2.1,12.4h-1.5L62.2,79.1z M67.9,68.2c-1.8,1.9-2.5,2.9-2.9,4.2l-3.2-0.2l0.4-2.1l-2.9,2l0,0l-2.2-2.3l-0.3,2.1l-1-0.1
		c-0.1,0-0.1-0.1-0.2-0.1c-0.1,0-0.1,0-0.2,0l-1.6-0.1l-2-7.1c0,0,0,0,0,0c0,0,0-0.1,0-0.1c0,0,0-0.1-0.1-0.1c0,0,0,0-0.1-0.1
		c0,0-0.1,0-0.1-0.1c0,0,0,0,0,0c-0.8-0.3-1.3-0.8-1.5-1.4C49.7,62,50.4,61,50.4,61l0.2-0.3l-0.2-0.3c-0.6-1-0.9-4,0.3-6
		c0.7-1.2,1.8-1.7,3.2-1.7c4,0.1,4.3,0.1,5.4-1c0.4-0.4,1-0.9,2.1-1.7c0.8-0.6,1.5-0.8,2.1-0.6c0.8,0.2,1.3,1,1.6,1.5c0,0,0,0,0,0
		l0,0.1c0.2,0.4,0.3,0.8,0.5,1.3c0,0,0,0,0,0c0,0,0,0,0,0c0,0,0,0,0,0C67.7,57.5,70.6,65.2,67.9,68.2z M90.9,81.2l-7.2-6.7
		c0.3-0.3,0.6-0.6,0.9-1l6.9,6.3L90.9,81.2z M100.4,63c0.3,0.6,0.5,1.8-0.9,4.5c0-0.3-0.1-0.5-0.1-0.8c0.5-1.8,0.6-3.2,0.6-4.1
		C100.1,62.6,100.3,62.8,100.4,63z M98.6,61.5c0.1,0,0.2,0.2,0.3,0.4c0.1,0.3,0.2,1.1,0,2.3c-0.3-1-0.6-1.9-0.9-2.6
		C98.2,61.5,98.4,61.4,98.6,61.5z M99.6,69.4c1.2-2,1.9-3.7,2-5c0.1,0.1,0.1,0.1,0.2,0.2c0.3,0.5,0.4,1.9-1.5,5l-0.6,0.3
		C99.5,69.8,99.6,69.6,99.6,69.4z"/>
	<path id="XMLID_159_" d="M64.1,58c0.6,0,1.1-0.5,1.1-1.1c0-0.6-0.5-1.1-1.1-1.1S63,56.2,63,56.9C63,57.5,63.5,58,64.1,58z"/>
	<path id="XMLID_160_" d="M55.3,58.3c-0.6,0-1.1,0.5-1.1,1.1s0.5,1.1,1.1,1.1c0.6,0,1.1-0.5,1.1-1.1S55.9,58.3,55.3,58.3z"/>
	<path id="XMLID_163_" d="M58.7,66.1c1.6,1.1,3,1.7,4.2,1.7c0.5,0,1-0.1,1.4-0.3c2-1.1,1.9-4.5,1.9-4.7l0-0.7L58,65.6L58.7,66.1z
		 M65.2,63.6c-0.1,1-0.4,2.5-1.4,3c-0.8,0.5-2.1,0.2-3.8-0.8L65.2,63.6z"/>
	<path id="XMLID_164_" d="M60.6,59.3c0.5,0,1,0,1.2,0.3c0.1,0.2,0.2,0.4,0.2,0.8c0,0.2,0.1,0.4,0.3,0.4c0,0,0,0,0,0
		c0.2,0,0.4-0.1,0.4-0.3c0.1-0.6-0.1-1.1-0.4-1.4c-0.4-0.5-1.2-0.5-1.8-0.5c-0.1,0-0.2,0-0.2-0.1c-0.2-0.2-0.1-0.8-0.1-1.1
		c0-0.2-0.1-0.4-0.3-0.4c-0.2,0-0.4,0.1-0.4,0.3c0,0.1-0.2,1.2,0.2,1.7C60,59.2,60.3,59.3,60.6,59.3z"/>
	<path id="XMLID_167_" d="M73.6,67.4l0,2.6H76h1h1.2l0-2.6l1-3.2c0.4-1.2-0.2-2.3-0.2-2.3c0,0,0,0,0,0l-2-5h-3L72,62.1
		c0,0.2-0.2,1,0,1.6C72.2,64.1,73.4,66.9,73.6,67.4z M76,69h-1.3l0-1.2H76V69z M72.9,62.4l1.6-4.5h1.3l-1.5,4.3c0,0.2-0.2,1,0,1.6
		c0.1,0.3,0.9,2.1,1.4,3.1h-1.2c-0.5-1.2-1.4-3.2-1.5-3.5C72.9,63.1,72.9,62.6,72.9,62.4z"/>
	<circle id="XMLID_169_" cx="76.3" cy="44.2" r="0.8"/>
	<circle id="XMLID_170_" cx="76.3" cy="46.9" r="0.8"/>
	<circle id="XMLID_171_" cx="76.3" cy="49.6" r="0.8"/>
	<circle id="XMLID_172_" cx="76.3" cy="52.3" r="0.8"/>
	<circle id="XMLID_173_" cx="76.3" cy="55" r="0.8"/>
</g>
<g id="XMLID_1_">
	<g id="XMLID_2_">
		<path d="M19.7,39.5L19.7,39.5c-2.3-3.6-1.5-8.1,2.3-10.6c1.9-1.2,3.4-1.5,4.9-1.4c0.4,0,0.9,0.3,1.2,0.7c0.5,0.7,0.2,1.7-0.5,2.2
			c-0.4,0.2-0.7,0.3-1,0.3c-1.1-0.1-2.1,0.1-3.1,0.7c-2.1,1.3-2.5,4-1.1,6.2l0,0c1.4,2.1,4,3,6.1,1.6c1.2-0.7,1.7-1.6,2.1-2.7
			c0.1-0.3,0.3-0.6,0.6-0.8c0.7-0.4,1.6-0.2,2.1,0.4c0.3,0.4,0.3,0.9,0.2,1.3c-0.5,1.7-1.4,3.1-3.4,4.4C26.5,44.2,22,43.1,19.7,39.5
			z"/>
	</g>
	<g id="XMLID_18_">
		<path d="M35.1,30.1L35.1,30.1c-1.5-4,0.5-8.3,4.7-9.9c4.3-1.6,8.5,0.5,9.9,4.4l0,0c1.4,3.9-0.5,8.3-4.7,9.8
			C40.8,36.1,36.6,34.1,35.1,30.1z M46.6,25.9L46.6,25.9c-0.9-2.4-3.3-3.7-5.8-2.8c-2.4,0.9-3.4,3.5-2.6,5.8l0,0
			c0.9,2.4,3.3,3.7,5.8,2.8C46.5,30.8,47.5,28.3,46.6,25.9z"/>
	</g>
	<g id="XMLID_24_">
		<path d="M53.8,18c-0.1-0.2-0.2-0.4-0.2-0.6c-0.1-0.9,0.6-1.6,1.5-1.7c0.8-0.1,1.4,0.4,1.7,1l3.7,8.7l2.1-9.2
			c0.2-0.8,0.7-1.3,1.5-1.4l0.3,0c0.8-0.1,1.4,0.4,1.7,1.1l3.7,8.6l2.1-9.2c0.2-0.6,0.6-1.2,1.4-1.3c0.9-0.1,1.6,0.5,1.7,1.4
			c0,0.2,0,0.4-0.1,0.6L72,28c-0.2,0.8-0.8,1.4-1.6,1.5l-0.3,0c-0.8,0.1-1.4-0.4-1.8-1.2l-3.6-8.1l-2.1,8.6
			c-0.2,0.9-0.8,1.4-1.5,1.5l-0.3,0c-0.8,0.1-1.4-0.4-1.8-1.2L53.8,18z"/>
	</g>
	<g id="XMLID_28_">
		<path d="M78.4,27.2l6.8-10.7c0.5-0.7,1.2-1.1,2.1-1l0.2,0c0.9,0.1,1.4,0.7,1.7,1.5l3.4,12.2c0.1,0.2,0.1,0.5,0.1,0.7
			c-0.1,0.9-0.9,1.4-1.7,1.3c-0.7-0.1-1.2-0.6-1.4-1.3l-0.6-2.4l-6.4-1L81,28.7c-0.4,0.6-1,0.9-1.6,0.8c-0.8-0.1-1.4-0.9-1.3-1.7
			C78.1,27.6,78.2,27.4,78.4,27.2z M88,24.5l-1.3-5.1l-2.7,4.5L88,24.5z"/>
	</g>
	<g id="XMLID_32_">
		<path d="M100.6,20.2c0.3-0.8,1.2-1.3,2.1-0.9l4.8,1.8c1.8,0.7,2.9,1.7,3.5,2.9c0.5,1.1,0.5,2.3,0,3.6l0,0
			c-0.8,2.2-2.4,3.1-4.3,3.2l1.2,3.3c0.2,0.5,0.2,0.9,0.1,1.3c-0.3,0.8-1.2,1.1-2,0.9c-0.7-0.3-1-0.8-1.2-1.3l-1.6-4.8l-2.4-0.9
			l-1.1,3c-0.3,0.8-1.2,1.3-2.1,1c-0.8-0.3-1.3-1.2-1-2.1L100.6,20.2z M104.8,27.7c1.5,0.6,2.6,0.1,3-1.1l0,0
			c0.5-1.3-0.2-2.3-1.6-2.9l-3-1.1l-1.5,4L104.8,27.7z"/>
	</g>
	<g id="XMLID_40_">
		<path d="M118.4,27.6c0.5-0.8,1.5-1,2.2-0.5l3.5,2.2c3.9,2.5,4.9,6.9,2.6,10.4l0,0c-2.2,3.5-6.7,4.5-10.5,2l-3.5-2.2
			c-0.8-0.5-1-1.5-0.5-2.2L118.4,27.6z M117.8,39.3c2.2,1.4,4.7,0.9,6.1-1.3l0,0c1.4-2.2,0.9-4.7-1.3-6.1l-2.1-1.3l-4.8,7.5
			L117.8,39.3z"/>
	</g>
</g>
</svg>
