<?xml version="1.0" encoding="utf-8"?>
<!-- Generator: Adobe Illustrator 19.0.0, SVG Export Plug-In . SVG Version: 6.00 Build 0)  -->
<svg version="1.1" id="Livello_1" xmlns="http://www.w3.org/2000/svg" xmlns:xlink="http://www.w3.org/1999/xlink" x="0px" y="0px"
	 viewBox="0 0 331.483 109.495" enable-background="new 0 0 331.483 109.495" xml:space="preserve">
<g id="XMLID_449_">
	<g id="XMLID_4_">
		<path id="XMLID_5_" d="M128.378,30.076c-0.401-0.654-0.904-1.23-1.508-1.727c-0.604-0.498-1.288-0.887-2.053-1.169
			c-0.765-0.28-1.568-0.425-2.407-0.431c-1.536-0.013-2.841,0.274-3.917,0.859c-1.076,0.585-1.952,1.373-2.625,2.366
			c-0.674,0.995-1.17,2.127-1.484,3.399c-0.314,1.272-0.477,2.587-0.488,3.948c-0.011,1.303,0.131,2.571,0.425,3.804
			c0.294,1.234,0.771,2.346,1.429,3.336c0.657,0.99,1.52,1.785,2.586,2.388c1.066,0.603,2.366,0.91,3.902,0.923
			c2.085,0.017,3.718-0.606,4.902-1.872c1.182-1.263,1.913-2.938,2.19-5.019l6.601,0.054c-0.185,1.937-0.652,3.687-1.388,5.243
			c-0.737,1.558-1.703,2.883-2.899,3.973c-1.197,1.091-2.593,1.92-4.19,2.486c-1.597,0.565-3.353,0.841-5.263,0.825
			c-2.375-0.019-4.507-0.449-6.397-1.289c-1.89-0.841-3.48-1.99-4.772-3.448c-1.291-1.458-2.275-3.168-2.954-5.129
			c-0.68-1.96-1.01-4.07-0.991-6.329c0.019-2.315,0.383-4.463,1.095-6.441c0.711-1.977,1.723-3.701,3.038-5.166
			c1.316-1.467,2.925-2.611,4.828-3.436c1.903-0.824,4.042-1.227,6.417-1.208c1.709,0.014,3.321,0.273,4.837,0.778
			c1.516,0.505,2.871,1.232,4.065,2.182c1.194,0.952,2.178,2.125,2.948,3.522c0.77,1.396,1.252,2.992,1.435,4.789l-6.599-0.054
			C129.032,31.451,128.778,30.731,128.378,30.076z"/>
		<path id="XMLID_7_" d="M142.777,30.847c0.709-1.977,1.72-3.701,3.036-5.166c1.316-1.467,2.923-2.611,4.828-3.436
			s4.043-1.227,6.419-1.208c2.404,0.02,4.542,0.458,6.416,1.313c1.874,0.855,3.458,2.025,4.751,3.514
			c1.289,1.486,2.275,3.227,2.955,5.215c0.677,1.989,1.006,4.142,0.987,6.458c-0.018,2.259-0.382,4.363-1.091,6.312
			c-0.712,1.949-1.726,3.643-3.039,5.08c-1.316,1.437-2.92,2.56-4.807,3.37c-1.887,0.81-4.033,1.204-6.436,1.185
			c-2.375-0.019-4.507-0.449-6.398-1.289c-1.891-0.841-3.48-1.99-4.772-3.448c-1.293-1.458-2.275-3.168-2.952-5.129
			c-0.684-1.96-1.013-4.07-0.995-6.329C141.697,34.972,142.061,32.824,142.777,30.847z M148.921,41.146
			c0.294,1.234,0.773,2.346,1.429,3.336c0.657,0.99,1.52,1.785,2.589,2.388c1.063,0.603,2.365,0.91,3.902,0.923
			c1.534,0.013,2.837-0.274,3.917-0.859c1.072-0.585,1.948-1.366,2.621-2.345c0.676-0.979,1.169-2.083,1.483-3.313
			c0.314-1.228,0.48-2.494,0.49-3.796c0.011-1.361-0.134-2.679-0.427-3.956c-0.294-1.277-0.769-2.417-1.428-3.423
			c-0.656-1.004-1.519-1.806-2.582-2.409c-1.07-0.603-2.368-0.91-3.902-0.923c-1.538-0.013-2.844,0.274-3.917,0.859
			c-1.079,0.585-1.955,1.373-2.628,2.366c-0.673,0.995-1.17,2.127-1.484,3.399c-0.314,1.272-0.474,2.587-0.485,3.948
			C148.489,38.645,148.627,39.914,148.921,41.146z"/>
		<path id="XMLID_10_" d="M201.506,54.808l-5.081-21.152l-0.088-0.001l-5.343,21.067l-6.903-0.056l-7.958-31.079l6.822,0.056
			l4.734,21.149l0.085,0.001l5.559-21.065l6.384,0.052l5.128,21.412l0.085,0.001l5.257-21.328l6.688,0.055l-8.591,30.944
			L201.506,54.808z"/>
		<path id="XMLID_12_" d="M234.452,21.713l11.345,31.107l-7.08-0.058l-2.287-6.926l-11.601-0.095l-2.488,6.887l-6.861-0.056
			l11.978-30.916L234.452,21.713z M234.69,40.74l-3.817-11.412l-0.088-0.001l-4.133,11.347L234.69,40.74z"/>
		<path id="XMLID_15_" d="M264.723,21.251c1.392-0.052,2.651,0.125,3.78,0.532c1.13,0.407,2.11,0.986,2.934,1.736
			c0.828,0.752,1.469,1.634,1.925,2.644c0.459,1.012,0.709,2.112,0.753,3.297c0.068,1.823-0.254,3.416-0.97,4.775
			c-0.717,1.36-1.929,2.419-3.641,3.179l0.003,0.087c0.849,0.202,1.555,0.529,2.124,0.987c0.565,0.456,1.035,1.003,1.406,1.642
			c0.374,0.639,0.652,1.344,0.844,2.121c0.185,0.775,0.327,1.551,0.413,2.332c0.047,0.49,0.097,1.068,0.15,1.733
			s0.132,1.343,0.232,2.034c0.097,0.691,0.234,1.346,0.42,1.962c0.179,0.616,0.439,1.135,0.773,1.557l-6.81,0.256
			c-0.418-0.969-0.692-2.132-0.831-3.49c-0.136-1.357-0.315-2.654-0.535-3.89c-0.294-1.613-0.829-2.779-1.61-3.505
			c-0.781-0.724-2.024-1.054-3.73-0.99l-6.817,0.256l0.455,12.111l-6.81,0.256l-1.163-30.991L264.723,21.251z M262.819,35.362
			c1.561-0.059,2.721-0.451,3.479-1.174c0.751-0.723,1.101-1.867,1.042-3.43c-0.056-1.505-0.49-2.582-1.292-3.232
			c-0.81-0.651-1.995-0.947-3.557-0.889l-7.467,0.28l0.327,8.725L262.819,35.362z"/>
		<path id="XMLID_18_" d="M291.938,21.036c1.981-0.28,3.867-0.224,5.66,0.165c1.794,0.391,3.404,1.13,4.828,2.214
			c1.428,1.087,2.627,2.525,3.594,4.319c0.97,1.793,1.638,3.965,1.998,6.517c0.316,2.237,0.32,4.342,0.013,6.315
			c-0.307,1.973-0.945,3.73-1.912,5.271c-0.968,1.54-2.264,2.827-3.886,3.859c-1.621,1.034-3.61,1.716-5.962,2.048l-13.245,1.869
			l-4.333-30.709L291.938,21.036z M294.998,46.134c0.977-0.138,1.899-0.429,2.772-0.873c0.873-0.444,1.618-1.085,2.229-1.916
			c0.614-0.833,1.054-1.868,1.318-3.104c0.261-1.235,0.276-2.699,0.037-4.391c-0.219-1.549-0.566-2.926-1.043-4.13
			c-0.477-1.205-1.121-2.203-1.936-2.995s-1.821-1.344-3.019-1.659c-1.201-0.313-2.631-0.352-4.293-0.117l-4.82,0.68l2.731,19.354
			L294.998,46.134z"/>
		<path id="XMLID_21_" d="M119.709,62.094c1.388,0.068,2.626,0.353,3.719,0.856c1.092,0.503,2.017,1.164,2.773,1.983
			c0.758,0.821,1.321,1.754,1.691,2.8c0.368,1.048,0.524,2.165,0.467,3.349c-0.089,1.822-0.549,3.381-1.38,4.673
			c-0.833,1.294-2.132,2.244-3.901,2.853l-0.004,0.087c0.827,0.274,1.504,0.661,2.029,1.166c0.526,0.503,0.948,1.089,1.263,1.757
			c0.316,0.668,0.534,1.396,0.654,2.185c0.121,0.788,0.192,1.574,0.212,2.359c0.004,0.492,0.004,1.073,0.002,1.74
			c-0.004,0.667,0.014,1.349,0.052,2.046s0.121,1.361,0.25,1.991c0.129,0.629,0.343,1.169,0.639,1.618l-6.811-0.332
			c-0.33-1.002-0.504-2.183-0.524-3.549c-0.02-1.364-0.087-2.671-0.2-3.922c-0.152-1.632-0.587-2.84-1.3-3.631
			c-0.717-0.789-1.927-1.225-3.633-1.308l-6.812-0.332l-0.59,12.105l-6.811-0.332l1.511-30.976L119.709,62.094z M116.594,75.989
			c1.562,0.076,2.751-0.214,3.566-0.87s1.259-1.765,1.335-3.327c0.073-1.504-0.264-2.614-1.011-3.332s-1.903-1.116-3.465-1.192
			l-7.462-0.364l-0.425,8.721L116.594,75.989z"/>
		<path id="XMLID_24_" d="M157.391,61.648l0.132,5.732l-16.373,0.378l0.153,6.644l15.023-0.347l0.122,5.297l-15.023,0.347l0.175,7.6
			l16.719-0.386l0.132,5.732l-23.536,0.543l-0.715-31.005L157.391,61.648z"/>
		<path id="XMLID_26_" d="M184.913,68.602c-0.423-0.638-0.949-1.195-1.571-1.667c-0.623-0.474-1.32-0.837-2.098-1.089
			c-0.771-0.251-1.581-0.364-2.422-0.338c-1.533,0.047-2.825,0.383-3.881,1.009c-1.049,0.626-1.894,1.447-2.528,2.466
			c-0.637,1.02-1.087,2.171-1.352,3.454c-0.265,1.283-0.381,2.604-0.339,3.964c0.04,1.302,0.233,2.564,0.575,3.784
			c0.341,1.222,0.859,2.315,1.557,3.279c0.694,0.964,1.587,1.725,2.672,2.287c1.092,0.561,2.401,0.818,3.935,0.772
			c2.085-0.063,3.694-0.749,4.828-2.06c1.131-1.307,1.801-3.009,1.995-5.1l6.6-0.2c-0.114,1.943-0.513,3.709-1.187,5.293
			c-0.677,1.585-1.59,2.946-2.744,4.081c-1.154,1.137-2.517,2.018-4.089,2.646c-1.576,0.626-3.32,0.969-5.231,1.027
			c-2.374,0.072-4.521-0.275-6.44-1.042c-1.919-0.768-3.554-1.855-4.902-3.262c-1.344-1.407-2.396-3.078-3.151-5.011
			c-0.752-1.933-1.162-4.028-1.231-6.286c-0.07-2.314,0.211-4.475,0.843-6.478c0.636-2.003,1.583-3.765,2.839-5.279
			c1.259-1.516,2.824-2.722,4.693-3.619c1.868-0.897,3.99-1.382,6.364-1.454c1.71-0.052,3.329,0.145,4.863,0.592
			c1.534,0.447,2.92,1.121,4.15,2.024c1.23,0.905,2.255,2.039,3.081,3.406c0.819,1.365,1.362,2.942,1.618,4.73l-6.597,0.2
			C185.618,69.951,185.339,69.241,184.913,68.602z"/>
		<path id="XMLID_28_" d="M196.862,71.555c0.632-2.003,1.576-3.765,2.835-5.279c1.259-1.516,2.821-2.722,4.693-3.619
			c1.872-0.897,3.993-1.382,6.367-1.454c2.403-0.073,4.556,0.283,6.462,1.065c1.905,0.782,3.534,1.891,4.882,3.328
			c1.345,1.436,2.397,3.137,3.154,5.098c0.753,1.961,1.164,4.101,1.234,6.415c0.069,2.258-0.214,4.374-0.847,6.349
			c-0.637,1.975-1.585,3.707-2.841,5.193c-1.26,1.486-2.819,2.671-4.673,3.553c-1.855,0.882-3.983,1.359-6.386,1.432
			c-2.374,0.072-4.521-0.275-6.443-1.042c-1.922-0.767-3.554-1.855-4.902-3.262c-1.348-1.407-2.396-3.078-3.148-5.011
			c-0.759-1.933-1.169-4.028-1.238-6.286C195.942,75.719,196.223,73.558,196.862,71.555z M203.399,81.61
			c0.341,1.222,0.862,2.315,1.557,3.279c0.694,0.964,1.587,1.725,2.679,2.286c1.085,0.561,2.398,0.818,3.935,0.772
			c1.533-0.047,2.825-0.383,3.881-1.009c1.049-0.626,1.894-1.44,2.529-2.444c0.638-1.004,1.088-2.127,1.355-3.367
			c0.267-1.239,0.384-2.51,0.344-3.812c-0.041-1.36-0.237-2.672-0.579-3.936c-0.343-1.265-0.861-2.386-1.559-3.365
			c-0.695-0.978-1.588-1.747-2.673-2.308c-1.092-0.561-2.401-0.818-3.935-0.772c-1.537,0.047-2.832,0.383-3.881,1.009
			c-1.056,0.626-1.901,1.448-2.535,2.466c-0.634,1.02-1.087,2.171-1.352,3.454c-0.265,1.283-0.374,2.604-0.332,3.964
			C202.871,79.128,203.058,80.39,203.399,81.61z"/>
		<path id="XMLID_31_" d="M247.69,61.729c1.389-0.015,2.643,0.197,3.764,0.634c1.118,0.437,2.083,1.042,2.882,1.815
			c0.807,0.775,1.425,1.673,1.856,2.695c0.431,1.024,0.652,2.13,0.664,3.316c0.019,1.824-0.349,3.408-1.099,4.747
			c-0.757,1.341-1.997,2.367-3.729,3.079l0.001,0.087c0.844,0.224,1.54,0.571,2.097,1.044c0.556,0.471,1.011,1.03,1.365,1.679
			c0.357,0.648,0.615,1.362,0.783,2.143c0.167,0.779,0.285,1.559,0.35,2.342c0.033,0.491,0.068,1.07,0.107,1.736
			c0.035,0.666,0.095,1.346,0.173,2.04s0.202,1.352,0.367,1.972c0.166,0.62,0.412,1.146,0.734,1.578l-6.818,0.072
			c-0.389-0.98-0.631-2.15-0.733-3.511c-0.103-1.36-0.244-2.661-0.433-3.903c-0.247-1.62-0.751-2.801-1.511-3.547
			c-0.761-0.745-1.995-1.108-3.706-1.09l-6.818,0.072l0.127,12.119l-6.818,0.072l-0.326-31.011L247.69,61.729z M245.402,75.783
			c1.566-0.016,2.736-0.377,3.51-1.08c0.774-0.703,1.154-1.836,1.138-3.4c-0.016-1.506-0.42-2.594-1.208-3.266
			s-1.965-1.001-3.531-0.984l-7.469,0.079l0.092,8.731L245.402,75.783z"/>
		<path id="XMLID_34_" d="M274.71,61.196c2-0.032,3.865,0.257,5.596,0.866c1.731,0.611,3.238,1.543,4.516,2.796
			c1.282,1.256,2.293,2.831,3.03,4.732c0.741,1.899,1.133,4.138,1.174,6.714c0.036,2.258-0.221,4.348-0.77,6.268
			c-0.549,1.92-1.4,3.584-2.551,4.993c-1.151,1.408-2.597,2.525-4.334,3.348c-1.737,0.825-3.795,1.255-6.17,1.293l-13.374,0.212
			l-0.491-31.009L274.71,61.196z M274.634,86.48c0.986-0.016,1.938-0.19,2.859-0.523c0.921-0.333,1.74-0.876,2.449-1.624
			c0.713-0.75,1.277-1.722,1.693-2.917c0.412-1.193,0.609-2.643,0.582-4.352c-0.025-1.564-0.199-2.974-0.523-4.227
			c-0.324-1.255-0.839-2.325-1.55-3.212c-0.71-0.887-1.64-1.56-2.79-2.02c-1.153-0.459-2.567-0.675-4.246-0.649l-4.867,0.077
			l0.31,19.543L274.634,86.48z"/>
		<path id="XMLID_37_" d="M300.102,85.474c0.396,0.711,0.912,1.283,1.551,1.712c0.635,0.43,1.373,0.74,2.221,0.932
			c0.848,0.192,1.716,0.275,2.614,0.248c0.608-0.018,1.26-0.09,1.949-0.211c0.693-0.124,1.337-0.338,1.936-0.646
			c0.599-0.308,1.092-0.721,1.483-1.24s0.573-1.169,0.549-1.951c-0.025-0.839-0.311-1.511-0.864-2.016
			c-0.553-0.505-1.266-0.916-2.145-1.238c-0.88-0.322-1.871-0.596-2.981-0.822c-1.107-0.228-2.228-0.482-3.369-0.768
			c-1.168-0.253-2.306-0.574-3.417-0.961c-1.115-0.385-2.114-0.898-3.003-1.537c-0.889-0.64-1.614-1.45-2.182-2.434
			c-0.567-0.982-0.869-2.182-0.912-3.601c-0.048-1.592,0.249-2.983,0.895-4.177c0.643-1.192,1.504-2.196,2.582-3.012
			c1.072-0.814,2.301-1.43,3.678-1.85c1.381-0.417,2.76-0.648,4.152-0.69c1.618-0.049,3.178,0.084,4.68,0.401
			s2.848,0.863,4.028,1.637c1.18,0.776,2.13,1.783,2.854,3.022c0.717,1.237,1.102,2.755,1.157,4.548l-6.6,0.2
			c-0.085-0.924-0.306-1.685-0.656-2.282c-0.351-0.598-0.807-1.063-1.365-1.393c-0.562-0.331-1.198-0.558-1.913-0.681
			s-1.491-0.172-2.328-0.147c-0.551,0.017-1.101,0.092-1.645,0.225c-0.548,0.132-1.04,0.35-1.48,0.653
			c-0.44,0.303-0.796,0.675-1.073,1.118c-0.277,0.443-0.408,0.997-0.388,1.663c0.018,0.608,0.15,1.097,0.395,1.465
			c0.241,0.371,0.711,0.703,1.399,1.001c0.688,0.299,1.638,0.589,2.849,0.87c1.211,0.282,2.796,0.64,4.75,1.072
			c0.583,0.099,1.391,0.283,2.429,0.556c1.034,0.273,2.073,0.727,3.104,1.363c1.034,0.635,1.938,1.499,2.71,2.59
			c0.769,1.092,1.183,2.507,1.236,4.243c0.043,1.419-0.193,2.743-0.703,3.975c-0.514,1.232-1.302,2.306-2.357,3.223
			c-1.061,0.916-2.387,1.644-3.979,2.184c-1.589,0.542-3.44,0.844-5.553,0.908c-1.71,0.052-3.374-0.108-4.994-0.478
			c-1.617-0.37-3.057-0.986-4.314-1.846c-1.257-0.86-2.267-1.974-3.033-3.342c-0.766-1.367-1.163-3.006-1.193-4.918l6.6-0.2
			C299.488,83.884,299.702,84.761,300.102,85.474z"/>
	</g>
	<g id="XMLID_1_">
		<path id="XMLID_42_" d="M63.239,32.828c-7.945,0-14.409,6.464-14.409,14.409s6.464,14.409,14.409,14.409
			s14.409-6.464,14.409-14.409S71.184,32.828,63.239,32.828z"/>
		<path id="XMLID_46_" d="M17.162,20.492v72.948h72.948V20.492H17.162z M63.239,67.646c-11.253,0-20.409-9.156-20.409-20.409
			s9.156-20.409,20.409-20.409c11.254,0,20.409,9.156,20.409,20.409S74.493,67.646,63.239,67.646z"/>
	</g>
</g>
</svg>
