<?xml version="1.0" encoding="utf-8"?>
<!-- Generator: Adobe Illustrator 19.0.0, SVG Export Plug-In . SVG Version: 6.00 Build 0)  -->
<svg version="1.1" id="Livello_1" xmlns="http://www.w3.org/2000/svg" xmlns:xlink="http://www.w3.org/1999/xlink" x="0px" y="0px"
	 viewBox="-556 372.223 78.178 97.667" enable-background="new -556 372.223 78.178 97.667" xml:space="preserve">
<g id="Livello_5">
</g>
<g id="fustella">
</g>
<g id="fustella_su_nero">
</g>
<g id="template">
</g>
<g id="template_copia">
</g>
<g id="template_su_nero">
</g>
<g id="Livello_12">
</g>
<g id="Livello_11">
</g>
<g id="Livello_10">
	<g id="XMLID_340_">
	</g>
	<g id="XMLID_316_">
	</g>
	<g id="XMLID_123_">
	</g>
</g>
<g id="Livello_9">
</g>
<g id="testo">
</g>
<g id="XMLID_7_">
</g>
<g>
	<g>
		<path d="M-493.032,389.012l-2.121,2.121c0.465,0.503,0.912,1.024,1.335,1.564c-0.71,0.339-1.443,0.656-2.202,0.954
			c-0.168-0.382-0.355-0.746-0.536-1.115l-7.696,7.696c0.301,2.102,0.495,4.26,0.555,6.398h-4.58
			c-0.006-0.789-0.025-1.557-0.041-2.331l-5.331,5.331h2.372c-0.019,2.517-0.083,4.84-0.184,6.958
			c-0.699-0.025-1.395-0.056-2.102-0.056c-0.707,0-1.404,0.032-2.104,0.056c-0.071-1.493-0.123-3.094-0.154-4.787l-2.911,2.911
			c0.025,0.689,0.045,1.387,0.078,2.059c-0.806,0.07-1.602,0.157-2.393,0.256l-4.006,4.006c0.59,2.537,1.346,4.846,2.248,6.848
			c-0.358,0.165-0.707,0.336-1.037,0.521c-1.353-1.415-2.554-3.105-3.574-5.006l-2.172,2.172c0.778,1.338,1.632,2.588,2.572,3.712
			c-1.264-0.807-2.446-1.729-3.542-2.742l-2.122,2.122c1.85,1.721,3.924,3.205,6.185,4.383c0.076,0.048,0.155,0.088,0.236,0.121
			c3.815,1.943,8.127,3.046,12.694,3.046c4.543,0,8.833-1.091,12.634-3.015c0.005-0.002,0.01-0.006,0.015-0.008
			c4.219-2.138,7.829-5.307,10.493-9.179c0.072-0.081,0.137-0.17,0.192-0.269c0.005-0.009,0.007-0.018,0.011-0.027
			c2.987-4.46,4.732-9.818,4.733-15.577c0-0.002,0.001-0.003,0.001-0.005c0-0.002-0.001-0.004-0.001-0.006
			C-485.488,400.743-488.357,394.026-493.032,389.012z M-522.12,420.2c1.188-0.189,2.407-0.327,3.641-0.436
			c0.165,2.396,0.382,4.623,0.647,6.622c-0.748,0.127-1.469,0.289-2.165,0.481C-520.848,424.927-521.564,422.653-522.12,420.2z
			 M-518.553,429.602c0.383-0.091,0.778-0.169,1.179-0.24c0.158,0.872,0.321,1.648,0.491,2.32
			C-517.472,431.122-518.03,430.422-518.553,429.602z M-513.564,432.349c-0.261-0.736-0.543-1.841-0.817-3.301
			c0.271-0.01,0.544-0.016,0.818-0.016c0.273,0,0.545,0.006,0.816,0.016C-513.022,430.508-513.303,431.613-513.564,432.349z
			 M-512.273,426.066c-0.426-0.021-0.855-0.035-1.29-0.035c-0.436,0-0.866,0.014-1.293,0.035c-0.245-1.821-0.464-3.992-0.636-6.484
			c0.641-0.022,1.28-0.051,1.929-0.051c0.648,0,1.286,0.029,1.927,0.051C-511.809,422.075-512.028,424.245-512.273,426.066z
			 M-492.09,395.19c2.043,3.378,3.308,7.274,3.556,11.44h-4.575c-0.14-3.617-0.785-7.051-1.834-10.18
			C-493.955,396.062-493.004,395.642-492.09,395.19z M-497.753,397.436c0.93,2.818,1.504,5.922,1.639,9.194h-4.577
			c-0.066-2.879-0.323-5.63-0.744-8.197C-500.168,398.15-498.947,397.808-497.753,397.436z M-500.691,409.63h4.577
			c-0.135,3.271-0.709,6.374-1.638,9.191c-1.193-0.371-2.417-0.709-3.684-0.992C-501.015,415.262-500.757,412.509-500.691,409.63z
			 M-510.246,431.682c0.17-0.672,0.333-1.448,0.491-2.319c0.401,0.07,0.795,0.149,1.179,0.24
			C-509.099,430.422-509.657,431.121-510.246,431.682z M-507.133,426.865c-0.695-0.191-1.417-0.353-2.164-0.48
			c0.265-1.999,0.482-4.226,0.647-6.622c1.234,0.109,2.453,0.247,3.641,0.436C-505.565,422.652-506.281,424.927-507.133,426.865z
			 M-508.474,416.771c0.111-2.287,0.177-4.681,0.196-7.141h4.58c-0.072,2.556-0.324,5.144-0.737,7.626
			C-505.752,417.042-507.105,416.89-508.474,416.771z M-503.286,428.4c-0.33-0.185-0.68-0.356-1.037-0.521
			c0.933-2.073,1.715-4.469,2.313-7.112c1.091,0.246,2.143,0.537,3.174,0.852C-500.014,424.257-501.525,426.559-503.286,428.4z
			 M-500.113,429.28c1.602-1.917,2.988-4.165,4.094-6.673c0.758,0.298,1.493,0.615,2.203,0.954
			C-495.574,425.805-497.703,427.742-500.113,429.28z M-492.091,421.071c-0.914-0.452-1.863-0.875-2.852-1.263
			c1.049-3.129,1.694-6.563,1.833-10.179h4.575C-488.782,413.797-490.048,417.693-492.091,421.071z"/>
		<path d="M-543.606,430.464c0.014,0.026,0.036,0.045,0.052,0.07c0.824,1.22,1.752,2.363,2.754,3.436l2.118-2.118
			c-0.466-0.504-0.913-1.025-1.337-1.566c0.71-0.339,1.444-0.656,2.203-0.954c0.169,0.382,0.356,0.747,0.537,1.117l7.696-7.696
			c-0.301-2.102-0.494-4.26-0.555-6.399h4.581c0.006,0.789,0.025,1.558,0.041,2.332l5.332-5.332h-2.373
			c0.019-2.516,0.083-4.839,0.184-6.957c0.699,0.025,1.396,0.056,2.103,0.056c0.707,0,1.404-0.031,2.103-0.056
			c0.071,1.493,0.123,3.093,0.154,4.786l2.911-2.911c-0.025-0.689-0.045-1.387-0.078-2.058c0.805-0.07,1.601-0.157,2.391-0.255
			l4.007-4.007c-0.59-2.537-1.346-4.845-2.247-6.847c0.358-0.165,0.707-0.336,1.037-0.521c1.352,1.414,2.553,3.104,3.573,5.005
			l2.172-2.172c-0.778-1.338-1.632-2.588-2.572-3.712c1.264,0.807,2.445,1.729,3.542,2.742l2.126-2.126
			c-1.857-1.729-3.946-3.212-6.218-4.393c-0.055-0.033-0.11-0.061-0.168-0.086c-3.825-1.956-8.152-3.067-12.735-3.067
			c-0.004,0-0.008,0.001-0.013,0.001c-4.547,0.002-8.84,1.097-12.643,3.026c-0.111,0.04-0.216,0.095-0.318,0.163
			c-4.071,2.131-7.558,5.228-10.152,8.989c-0.08,0.087-0.153,0.181-0.212,0.289c-0.01,0.018-0.014,0.037-0.023,0.055
			c-2.978,4.457-4.718,9.807-4.718,15.557c0,5.759,1.745,11.116,4.73,15.577C-543.614,430.442-543.612,430.454-543.606,430.464z
			 M-511.716,402.786c-1.188,0.189-2.407,0.326-3.641,0.435c-0.165-2.396-0.382-4.623-0.647-6.622
			c0.747-0.127,1.469-0.289,2.164-0.48C-512.987,398.059-512.271,400.334-511.716,402.786z M-515.282,393.384
			c-0.383,0.091-0.778,0.169-1.179,0.24c-0.158-0.872-0.321-1.648-0.491-2.32C-516.364,391.865-515.805,392.564-515.282,393.384z
			 M-520.271,390.637c0.261,0.736,0.543,1.841,0.817,3.301c-0.271,0.01-0.543,0.016-0.817,0.016c-0.273,0-0.546-0.006-0.817-0.016
			C-520.814,392.478-520.532,391.373-520.271,390.637z M-521.562,396.917c0.428,0.022,0.857,0.037,1.291,0.037
			c0.435,0,0.865-0.014,1.292-0.035c0.245,1.821,0.464,3.992,0.637,6.484c-0.641,0.022-1.28,0.05-1.928,0.05
			c-0.649,0-1.287-0.029-1.928-0.051C-522.026,400.909-521.807,398.738-521.562,396.917z M-536.083,425.546
			c-0.93-2.818-1.503-5.921-1.639-9.192h4.577c0.066,2.88,0.324,5.632,0.745,8.2C-533.667,424.838-534.89,425.175-536.083,425.546z
			 M-533.145,413.354h-4.577c0.135-3.27,0.709-6.373,1.639-9.19c1.193,0.371,2.417,0.708,3.684,0.991
			C-532.821,407.723-533.078,410.475-533.145,413.354z M-523.59,391.303c-0.17,0.672-0.333,1.447-0.491,2.318
			c-0.4-0.07-0.795-0.149-1.178-0.24C-524.736,392.562-524.178,391.864-523.59,391.303z M-526.693,396.098
			c0.695,0.193,1.414,0.358,2.157,0.487c-0.266,2.002-0.483,4.234-0.649,6.636c-1.234-0.109-2.453-0.247-3.641-0.436
			C-528.269,400.324-527.549,398.042-526.693,396.098z M-525.361,406.214c-0.111,2.286-0.177,4.681-0.196,7.14h-4.581
			c0.072-2.556,0.325-5.144,0.737-7.625C-528.083,405.943-526.73,406.095-525.361,406.214z M-530.535,394.57
			c0.329,0.181,0.677,0.35,1.032,0.513c-0.938,2.078-1.723,4.482-2.324,7.135c-1.091-0.245-2.143-0.537-3.173-0.852
			C-533.818,398.721-532.302,396.414-530.535,394.57z M-533.723,393.705c-1.602,1.917-2.988,4.165-4.094,6.673
			c-0.758-0.298-1.493-0.615-2.203-0.954C-538.262,397.18-536.132,395.243-533.723,393.705z M-541.745,401.914
			c0.914,0.452,1.863,0.875,2.852,1.263c-1.049,3.129-1.694,6.562-1.833,10.177h-4.575
			C-545.054,409.188-543.788,405.292-541.745,401.914z M-540.726,416.354c0.139,3.616,0.785,7.05,1.833,10.179
			c-0.989,0.388-1.938,0.81-2.852,1.263c-2.044-3.378-3.309-7.275-3.556-11.442H-540.726z"/>
	</g>
	<path d="M-534.507,446.237l-1.619-0.013c-0.068,0.51-0.247,0.921-0.537,1.231c-0.29,0.31-0.69,0.463-1.202,0.459
		c-0.377-0.003-0.695-0.078-0.957-0.226c-0.261-0.148-0.473-0.343-0.634-0.586c-0.162-0.242-0.279-0.515-0.351-0.818
		c-0.072-0.302-0.107-0.614-0.104-0.933c0.003-0.333,0.043-0.656,0.12-0.968c0.077-0.312,0.199-0.59,0.364-0.834
		c0.165-0.243,0.38-0.436,0.644-0.58c0.264-0.144,0.584-0.214,0.961-0.211c0.205,0.002,0.402,0.037,0.59,0.106
		c0.188,0.069,0.356,0.165,0.504,0.287c0.148,0.122,0.272,0.264,0.37,0.424c0.098,0.161,0.16,0.338,0.184,0.528l1.619,0.013
		c-0.045-0.441-0.163-0.833-0.352-1.175c-0.189-0.343-0.43-0.631-0.723-0.864c-0.293-0.233-0.625-0.411-0.997-0.535
		s-0.767-0.188-1.186-0.191c-0.583-0.005-1.107,0.094-1.574,0.296c-0.467,0.202-0.861,0.483-1.184,0.843
		c-0.322,0.359-0.571,0.782-0.745,1.267c-0.175,0.485-0.264,1.012-0.269,1.58c-0.005,0.554,0.076,1.071,0.243,1.552
		s0.408,0.9,0.725,1.258c0.317,0.358,0.708,0.64,1.171,0.846c0.464,0.206,0.986,0.311,1.569,0.316
		c0.469,0.004,0.899-0.063,1.291-0.202s0.734-0.342,1.028-0.61c0.293-0.267,0.53-0.592,0.711-0.974
		C-534.667,447.141-534.552,446.712-534.507,446.237z"/>
	<path d="M-525.885,446.954c0.174-0.478,0.263-0.994,0.268-1.548c0.005-0.568-0.076-1.096-0.242-1.584
		c-0.167-0.488-0.409-0.914-0.725-1.279c-0.317-0.365-0.705-0.652-1.165-0.862c-0.46-0.21-0.984-0.317-1.574-0.322
		c-0.582-0.005-1.107,0.094-1.574,0.296c-0.467,0.202-0.861,0.483-1.184,0.843c-0.323,0.359-0.571,0.782-0.745,1.267
		c-0.176,0.485-0.265,1.011-0.27,1.581c-0.005,0.554,0.076,1.071,0.244,1.552c0.166,0.481,0.407,0.9,0.724,1.258
		c0.317,0.358,0.707,0.64,1.171,0.846c0.464,0.206,0.986,0.311,1.569,0.316c0.59,0.004,1.116-0.092,1.579-0.291
		c0.463-0.199,0.856-0.475,1.179-0.827C-526.308,447.848-526.06,447.432-525.885,446.954z M-527.408,446.323
		c-0.077,0.301-0.198,0.572-0.364,0.812c-0.165,0.24-0.38,0.431-0.643,0.575c-0.265,0.144-0.585,0.214-0.961,0.211
		c-0.377-0.003-0.696-0.078-0.957-0.226c-0.262-0.148-0.474-0.343-0.635-0.586c-0.161-0.242-0.279-0.515-0.351-0.818
		c-0.072-0.302-0.106-0.614-0.103-0.933c0.003-0.333,0.042-0.656,0.119-0.968c0.077-0.312,0.199-0.59,0.364-0.834
		c0.165-0.243,0.38-0.436,0.645-0.58c0.263-0.144,0.584-0.214,0.961-0.211c0.376,0.003,0.695,0.078,0.957,0.226
		c0.26,0.148,0.472,0.345,0.633,0.591c0.161,0.247,0.278,0.527,0.35,0.84s0.108,0.636,0.105,0.97
		C-527.29,445.711-527.331,446.022-527.408,446.323z"/>
	<polygon points="-517.582,447.283 -517.603,447.283 -518.861,442.031 -520.427,442.018 -521.79,447.185 -521.811,447.185 
		-522.972,441.998 -524.645,441.984 -522.693,449.607 -521,449.621 -519.689,444.454 -519.667,444.454 -518.421,449.642 
		-516.76,449.655 -514.653,442.065 -516.293,442.052 	"/>
	<path d="M-512.7,447.418l2.845,0.023l0.561,1.699l1.737,0.014l-2.783-7.63l-1.715-0.014l-2.938,7.583l1.683,0.014L-512.7,447.418z
		 M-511.24,443.392h0.022l0.936,2.799l-1.972-0.016L-511.24,443.392z"/>
	<path d="M-502.581,446.314c0.192,0.178,0.323,0.464,0.395,0.86c0.054,0.303,0.098,0.621,0.131,0.954
		c0.034,0.333,0.101,0.618,0.204,0.856l1.67-0.063c-0.082-0.104-0.146-0.231-0.19-0.382c-0.045-0.151-0.079-0.311-0.103-0.481
		c-0.025-0.17-0.044-0.336-0.057-0.499c-0.013-0.163-0.026-0.305-0.037-0.425c-0.021-0.192-0.056-0.382-0.101-0.572
		c-0.047-0.19-0.115-0.363-0.207-0.52c-0.091-0.157-0.206-0.291-0.345-0.403c-0.14-0.112-0.313-0.193-0.521-0.242l-0.001-0.021
		c0.42-0.187,0.717-0.446,0.893-0.78c0.176-0.333,0.255-0.724,0.238-1.171c-0.011-0.291-0.072-0.561-0.185-0.809
		c-0.112-0.248-0.269-0.464-0.472-0.649c-0.202-0.184-0.443-0.326-0.72-0.426c-0.277-0.099-0.586-0.143-0.927-0.13l-4.098,0.154
		l0.285,7.601l1.67-0.063l-0.111-2.97l1.674-0.062C-503.077,446.055-502.772,446.136-502.581,446.314z M-505.215,444.941l-0.08-2.14
		l1.832-0.069c0.383-0.014,0.673,0.058,0.872,0.218c0.197,0.16,0.303,0.424,0.317,0.793c0.014,0.383-0.072,0.664-0.256,0.841
		c-0.186,0.177-0.47,0.274-0.853,0.288L-505.215,444.941z"/>
	<path d="M-493.668,441.942c-0.349-0.266-0.744-0.447-1.184-0.543s-0.902-0.11-1.388-0.041l-3.25,0.458l1.063,7.532l3.249-0.458
		c0.577-0.081,1.064-0.248,1.462-0.502c0.398-0.254,0.716-0.569,0.953-0.947c0.237-0.378,0.394-0.809,0.469-1.293
		s0.074-1-0.003-1.549c-0.088-0.625-0.252-1.158-0.49-1.598C-493.024,442.561-493.318,442.209-493.668,441.942z M-493.94,446.069
		c-0.065,0.303-0.172,0.557-0.323,0.761c-0.15,0.204-0.333,0.361-0.547,0.47c-0.214,0.109-0.44,0.18-0.68,0.214l-1.477,0.208
		l-0.67-4.747l1.182-0.167c0.408-0.057,0.758-0.048,1.053,0.029c0.293,0.077,0.54,0.213,0.74,0.407
		c0.2,0.195,0.358,0.439,0.475,0.735c0.117,0.295,0.202,0.633,0.256,1.013C-493.872,445.407-493.876,445.766-493.94,446.069z"/>
	<path d="M-536.701,454.78c0.203-0.317,0.316-0.699,0.338-1.146c0.015-0.291-0.024-0.565-0.114-0.822
		c-0.091-0.257-0.229-0.486-0.415-0.687c-0.185-0.201-0.412-0.363-0.68-0.486c-0.268-0.123-0.572-0.193-0.912-0.21l-4.097-0.2
		l-0.371,7.598l1.67,0.081l0.145-2.969l1.671,0.082c0.418,0.021,0.715,0.128,0.891,0.321c0.175,0.194,0.282,0.491,0.319,0.891
		c0.028,0.307,0.044,0.628,0.049,0.962c0.005,0.334,0.048,0.624,0.129,0.87l1.67,0.081c-0.073-0.11-0.125-0.243-0.157-0.397
		c-0.031-0.154-0.052-0.317-0.061-0.488c-0.01-0.171-0.014-0.338-0.013-0.502c0.001-0.164,0.001-0.306,0-0.427
		c-0.005-0.192-0.022-0.385-0.052-0.578c-0.029-0.194-0.082-0.372-0.16-0.536c-0.077-0.164-0.181-0.308-0.31-0.431
		c-0.129-0.124-0.295-0.219-0.498-0.286l0.001-0.021C-537.224,455.33-536.905,455.097-536.701,454.78z M-538.373,454.624
		c-0.2,0.16-0.492,0.232-0.875,0.213l-1.829-0.088l0.104-2.139l1.83,0.089c0.383,0.018,0.667,0.116,0.85,0.292
		c0.183,0.176,0.266,0.448,0.248,0.817C-538.064,454.191-538.173,454.464-538.373,454.624z"/>
	<polygon points="-533.115,457.612 -533.158,455.748 -529.473,455.663 -529.503,454.364 -533.188,454.449 -533.226,452.819 
		-529.21,452.726 -529.242,451.32 -534.93,451.451 -534.755,459.056 -528.982,458.923 -529.014,457.517 	"/>
	<path d="M-522.645,456.914c-0.278,0.321-0.673,0.489-1.184,0.505c-0.376,0.012-0.697-0.051-0.965-0.189
		c-0.266-0.138-0.485-0.325-0.655-0.561c-0.171-0.236-0.298-0.504-0.382-0.804c-0.084-0.299-0.131-0.609-0.141-0.928
		c-0.01-0.333,0.018-0.657,0.083-0.972s0.176-0.597,0.332-0.847c0.155-0.25,0.363-0.451,0.62-0.605
		c0.259-0.153,0.576-0.236,0.952-0.247c0.206-0.006,0.405,0.022,0.594,0.083c0.191,0.062,0.362,0.151,0.515,0.267
		c0.152,0.116,0.281,0.253,0.385,0.409c0.104,0.157,0.173,0.331,0.208,0.518l1.618-0.049c-0.063-0.438-0.196-0.825-0.397-1.16
		c-0.203-0.335-0.454-0.613-0.756-0.835c-0.302-0.221-0.642-0.386-1.018-0.496c-0.377-0.11-0.774-0.158-1.193-0.145
		c-0.582,0.018-1.103,0.137-1.561,0.357c-0.458,0.22-0.842,0.516-1.151,0.888c-0.308,0.372-0.54,0.804-0.696,1.295
		c-0.155,0.491-0.224,1.021-0.207,1.589c0.017,0.554,0.118,1.068,0.302,1.542c0.185,0.474,0.443,0.884,0.773,1.229
		c0.33,0.345,0.731,0.611,1.202,0.8c0.471,0.189,0.998,0.274,1.58,0.256c0.469-0.014,0.896-0.098,1.283-0.252
		c0.386-0.154,0.72-0.37,1.003-0.649c0.283-0.278,0.507-0.612,0.673-1.001c0.165-0.388,0.263-0.821,0.291-1.298l-1.619,0.049
		C-522.203,456.176-522.368,456.593-522.645,456.914z"/>
	<path d="M-513.369,452.286c-0.331-0.352-0.731-0.624-1.198-0.816c-0.467-0.192-0.996-0.279-1.585-0.261
		c-0.583,0.018-1.103,0.137-1.562,0.357c-0.459,0.22-0.842,0.516-1.151,0.888c-0.308,0.372-0.54,0.804-0.695,1.295
		c-0.157,0.492-0.226,1.022-0.207,1.586c0.017,0.554,0.118,1.068,0.304,1.542c0.184,0.474,0.441,0.884,0.772,1.229
		c0.33,0.345,0.73,0.612,1.202,0.8c0.471,0.189,0.998,0.274,1.58,0.256c0.589-0.018,1.111-0.135,1.566-0.351
		c0.455-0.216,0.837-0.506,1.146-0.871c0.308-0.365,0.541-0.79,0.697-1.274s0.225-1.003,0.208-1.557
		c-0.017-0.567-0.118-1.092-0.303-1.573C-512.781,453.055-513.039,452.638-513.369,452.286z M-514.049,456.097
		c-0.065,0.304-0.176,0.58-0.332,0.826c-0.155,0.247-0.363,0.446-0.62,0.6c-0.259,0.153-0.576,0.236-0.952,0.247
		c-0.377,0.012-0.699-0.051-0.965-0.189c-0.268-0.138-0.487-0.325-0.657-0.561c-0.17-0.236-0.298-0.504-0.382-0.804
		c-0.084-0.3-0.13-0.609-0.141-0.928c-0.01-0.333,0.017-0.657,0.082-0.972s0.177-0.597,0.332-0.847
		c0.156-0.25,0.363-0.451,0.622-0.605c0.257-0.153,0.575-0.236,0.952-0.247c0.376-0.012,0.697,0.051,0.965,0.189
		c0.267,0.138,0.486,0.326,0.656,0.566c0.171,0.24,0.298,0.515,0.382,0.825s0.132,0.631,0.142,0.965
		C-513.955,455.481-513.984,455.793-514.049,456.097z"/>
	<path d="M-504.835,458.047c-0.02-0.17-0.034-0.337-0.043-0.5c-0.009-0.163-0.018-0.306-0.026-0.426
		c-0.016-0.191-0.045-0.383-0.086-0.574c-0.041-0.192-0.104-0.367-0.192-0.526c-0.087-0.159-0.199-0.296-0.335-0.412
		c-0.136-0.116-0.307-0.201-0.514-0.256v-0.021c0.425-0.175,0.729-0.426,0.915-0.755c0.184-0.328,0.275-0.717,0.27-1.164
		c-0.003-0.291-0.057-0.562-0.163-0.813c-0.106-0.251-0.257-0.471-0.455-0.661c-0.196-0.189-0.433-0.338-0.707-0.445
		c-0.275-0.107-0.582-0.159-0.923-0.155l-4.102,0.044l0.08,7.606l1.672-0.018l-0.031-2.972l1.672-0.018
		c0.42-0.005,0.722,0.084,0.909,0.267c0.187,0.183,0.31,0.473,0.371,0.87c0.046,0.304,0.081,0.623,0.106,0.957
		c0.025,0.334,0.085,0.621,0.18,0.861l1.672-0.018c-0.079-0.106-0.139-0.235-0.18-0.387S-504.816,458.217-504.835,458.047z
		 M-506.794,454.522c-0.19,0.173-0.477,0.261-0.861,0.265l-1.831,0.019l-0.023-2.141l1.832-0.019
		c0.384-0.005,0.673,0.076,0.866,0.241c0.193,0.165,0.292,0.432,0.296,0.801C-506.511,454.072-506.604,454.35-506.794,454.522z"/>
	<path d="M-497.985,452.106c-0.314-0.308-0.683-0.536-1.108-0.686c-0.425-0.149-0.882-0.22-1.373-0.212l-3.279,0.052l0.12,7.606
		l3.28-0.052c0.582-0.009,1.087-0.115,1.513-0.317c0.426-0.202,0.781-0.476,1.063-0.821c0.283-0.346,0.491-0.754,0.626-1.225
		c0.135-0.47,0.198-0.983,0.189-1.537c-0.01-0.632-0.106-1.181-0.288-1.647C-497.423,452.8-497.671,452.414-497.985,452.106z
		 M-498.768,456.169c-0.102,0.293-0.24,0.531-0.415,0.715c-0.174,0.183-0.375,0.316-0.601,0.398
		c-0.226,0.081-0.459,0.124-0.701,0.128l-1.491,0.024l-0.076-4.794l1.194-0.019c0.411-0.007,0.758,0.046,1.041,0.159
		c0.282,0.113,0.51,0.279,0.684,0.496c0.174,0.218,0.301,0.48,0.38,0.788c0.079,0.308,0.122,0.653,0.128,1.037
		C-498.619,455.521-498.667,455.876-498.768,456.169z"/>
	<path d="M-490.573,454.96c-0.252-0.156-0.507-0.267-0.761-0.334c-0.255-0.067-0.453-0.112-0.596-0.136
		c-0.479-0.106-0.868-0.194-1.165-0.263c-0.297-0.069-0.53-0.14-0.699-0.213c-0.169-0.072-0.284-0.154-0.343-0.245
		c-0.06-0.09-0.092-0.21-0.097-0.359c-0.005-0.163,0.027-0.299,0.095-0.408c0.068-0.108,0.155-0.2,0.263-0.274
		c0.108-0.074,0.229-0.128,0.363-0.16c0.133-0.032,0.268-0.051,0.403-0.055c0.205-0.006,0.396,0.006,0.571,0.036
		c0.175,0.03,0.331,0.086,0.469,0.167c0.137,0.081,0.249,0.195,0.335,0.342s0.14,0.333,0.161,0.56l1.619-0.049
		c-0.014-0.44-0.108-0.813-0.284-1.116c-0.178-0.304-0.411-0.551-0.7-0.741s-0.62-0.324-0.988-0.402
		c-0.368-0.077-0.751-0.11-1.148-0.098c-0.341,0.01-0.679,0.067-1.018,0.169c-0.338,0.103-0.639,0.254-0.902,0.454
		c-0.264,0.2-0.475,0.447-0.633,0.739c-0.159,0.293-0.232,0.635-0.22,1.025c0.011,0.348,0.085,0.642,0.224,0.883
		c0.139,0.241,0.317,0.44,0.535,0.597c0.219,0.157,0.463,0.283,0.737,0.377c0.273,0.095,0.552,0.174,0.838,0.236
		c0.279,0.07,0.555,0.132,0.826,0.188c0.272,0.056,0.515,0.123,0.731,0.202c0.216,0.079,0.39,0.181,0.526,0.304
		c0.136,0.123,0.206,0.288,0.212,0.494c0.005,0.192-0.039,0.352-0.135,0.479s-0.217,0.228-0.364,0.304
		c-0.147,0.075-0.305,0.128-0.475,0.158c-0.169,0.03-0.329,0.047-0.478,0.052c-0.22,0.006-0.433-0.014-0.641-0.061
		c-0.208-0.048-0.389-0.124-0.545-0.229c-0.157-0.105-0.284-0.246-0.381-0.42c-0.098-0.174-0.151-0.39-0.157-0.648l-1.619,0.049
		c0.008,0.469,0.105,0.871,0.293,1.206c0.188,0.336,0.436,0.609,0.744,0.82c0.308,0.211,0.661,0.362,1.058,0.453
		c0.398,0.091,0.806,0.13,1.225,0.117c0.518-0.016,0.972-0.09,1.362-0.223c0.391-0.133,0.716-0.311,0.976-0.536
		c0.259-0.224,0.452-0.488,0.578-0.79c0.126-0.302,0.184-0.627,0.173-0.975c-0.013-0.426-0.114-0.773-0.303-1.041
		C-490.098,455.328-490.319,455.116-490.573,454.96z"/>
</g>
</svg>
