<svg enable-background="new -352 536.6 202 202" viewBox="-352 536.6 202 202" xmlns="http://www.w3.org/2000/svg"><path d="m-205.7 610c.8 14.9-20.8 23.3-20.8 23.3-8.4 0-6 6.3-6 6.3 10.2 2.1 3.7 12.3 2.8 11.4s-4.2 10.7-.9 11.6 5.1 11.2 3.3 12.6c-1.9 1.4-5.1 6-1.9 7.4 3.3 1.4.9 5.1.9 5.1l-2.8 14.9c4.7 13.5-5.1 19.1-5.1 19.1-11.6 7.4-20-2.8-20-4.7s-4.2-7.9-4.2-10.7-14-16.8-14-16.8-5.1-7.4-9.3-12.1-7.4-21.9-7.4-26.1c-.1-4.1-1.9-15.7-1.9-15.7-7-20.5-3.3-33.5-3.3-33.5s2.3-11.6 13-28.9c10.7-17.2 26.1-24.2 50.4-17.7 24.4 6.5 28 41.4 28 41.4 4.5 8.4-.8 13.1-.8 13.1m-44.6-68c-52.8 0-95.7 42.9-95.7 95.8s42.9 95.7 95.7 95.7c52.9 0 95.7-42.9 95.7-95.7 0-52.9-42.8-95.8-95.7-95.8"/></svg>