<?xml version="1.0" encoding="utf-8"?>
<!-- Generator: Adobe Illustrator 19.0.0, SVG Export Plug-In . SVG Version: 6.00 Build 0)  -->
<svg version="1.1" id="Livello_1" xmlns="http://www.w3.org/2000/svg" xmlns:xlink="http://www.w3.org/1999/xlink" x="0px" y="0px"
	 viewBox="-352 536.6 202 202" style="enable-background:new -352 536.6 202 202;" xml:space="preserve">
<g>
	<g>
		<path d="M-205.7,610c0.8,14.9-20.8,23.3-20.8,23.3c-8.4,0-6,6.3-6,6.3c10.2,2.1,3.7,12.3,2.8,11.4c-0.9-0.9-4.2,10.7-0.9,11.6
			c3.3,0.9,5.1,11.2,3.3,12.6c-1.9,1.4-5.1,6-1.9,7.4c3.3,1.4,0.9,5.1,0.9,5.1l-2.8,14.9c4.7,13.5-5.1,19.1-5.1,19.1
			c-11.6,7.4-20-2.8-20-4.7c0-1.9-4.2-7.9-4.2-10.7c0-2.8-14-16.8-14-16.8s-5.1-7.4-9.3-12.1c-4.2-4.7-7.4-21.9-7.4-26.1
			c-0.1-4.1-1.9-15.7-1.9-15.7c-7-20.5-3.3-33.5-3.3-33.5s2.3-11.6,13-28.9c10.7-17.2,26.1-24.2,50.4-17.7c24.4,6.5,28,41.4,28,41.4
			C-200.4,605.3-205.7,610-205.7,610 M-250.3,542c-52.8,0-95.7,42.9-95.7,95.8c0,52.9,42.9,95.7,95.7,95.7
			c52.9,0,95.7-42.9,95.7-95.7C-154.6,584.9-197.4,542-250.3,542"/>
	</g>
</g>
</svg>
